#N canvas 47 53 907 938 10;
#X declare -stdlib hid mrpeach;
#X obj 53 18 loadbang;
#N canvas 0 50 450 300 debounce 0;
#X obj 58 67 sel 0 1;
#X msg 79 119 1;
#X obj 130 97 t b b;
#X msg 130 118 0;
#X obj 77 143 spigot 1;
#X obj 58 97 delay 200;
#X obj 58 34 inlet;
#X obj 77 174 outlet;
#X connect 0 0 5 0;
#X connect 0 1 2 0;
#X connect 1 0 4 1;
#X connect 2 0 3 0;
#X connect 2 1 4 0;
#X connect 3 0 4 1;
#X connect 4 0 7 0;
#X connect 5 0 1 0;
#X connect 6 0 0 0;
#X restore 119 344 pd debounce;
#N canvas 0 50 450 300 debounce 0;
#X obj 58 67 sel 0 1;
#X msg 79 119 1;
#X obj 130 97 t b b;
#X msg 130 118 0;
#X obj 77 143 spigot 1;
#X obj 58 97 delay 200;
#X obj 58 34 inlet;
#X obj 77 174 outlet;
#X connect 0 0 5 0;
#X connect 0 1 2 0;
#X connect 1 0 4 1;
#X connect 2 0 3 0;
#X connect 2 1 4 0;
#X connect 3 0 4 1;
#X connect 4 0 7 0;
#X connect 5 0 1 0;
#X connect 6 0 0 0;
#X restore 201 393 pd debounce;
#N canvas 0 50 450 300 debounce 0;
#X obj 58 67 sel 0 1;
#X msg 79 119 1;
#X obj 130 97 t b b;
#X msg 130 118 0;
#X obj 77 143 spigot 1;
#X obj 58 97 delay 200;
#X obj 58 34 inlet;
#X obj 77 174 outlet;
#X connect 0 0 5 0;
#X connect 0 1 2 0;
#X connect 1 0 4 1;
#X connect 2 0 3 0;
#X connect 2 1 4 0;
#X connect 3 0 4 1;
#X connect 4 0 7 0;
#X connect 5 0 1 0;
#X connect 6 0 0 0;
#X restore 243 417 pd debounce;
#N canvas 0 50 450 300 debounce 0;
#X obj 58 67 sel 0 1;
#X msg 79 119 1;
#X obj 130 97 t b b;
#X msg 130 118 0;
#X obj 77 143 spigot 1;
#X obj 58 97 delay 200;
#X obj 58 34 inlet;
#X obj 77 174 outlet;
#X connect 0 0 5 0;
#X connect 0 1 2 0;
#X connect 1 0 4 1;
#X connect 2 0 3 0;
#X connect 2 1 4 0;
#X connect 3 0 4 1;
#X connect 4 0 7 0;
#X connect 5 0 1 0;
#X connect 6 0 0 0;
#X restore 284 441 pd debounce;
#X obj 243 464 bng 15 250 50 0 empty empty empty 17 7 0 10 -262144
-1 -1;
#X obj 284 464 bng 15 250 50 0 empty empty empty 17 7 0 10 -262144
-1 -1;
#X text 833 782 WFS;
#X text 832 635 QLab;
#X msg 702 707 disconnect;
#X msg 586 634 connect 192.168.1.45 53000;
#N canvas 0 50 450 385 QLabSelectPreviousNext 0;
#X obj 77 125 expr $f1-$f2;
#X obj 50 92 t f f;
#X obj 50 44 inlet;
#X obj 77 329 outlet;
#X msg 77 210 send /select/previous;
#X msg 123 284 send /select/next;
#X obj 77 147 sel 255 -1 1 -255;
#X connect 0 0 6 0;
#X connect 1 0 0 1;
#X connect 1 1 0 0;
#X connect 2 0 1 0;
#X connect 4 0 3 0;
#X connect 5 0 3 0;
#X connect 6 0 4 0;
#X connect 6 1 4 0;
#X connect 6 2 5 0;
#X connect 6 3 5 0;
#X restore 86 556 pd QLabSelectPreviousNext;
#N canvas 0 50 450 300 debounce 0;
#X obj 58 67 sel 0 1;
#X msg 79 119 1;
#X obj 130 97 t b b;
#X msg 130 118 0;
#X obj 77 143 spigot 1;
#X obj 58 97 delay 200;
#X obj 58 34 inlet;
#X obj 77 174 outlet;
#X connect 0 0 5 0;
#X connect 0 1 2 0;
#X connect 1 0 4 1;
#X connect 2 0 3 0;
#X connect 2 1 4 0;
#X connect 3 0 4 1;
#X connect 4 0 7 0;
#X connect 5 0 1 0;
#X connect 6 0 0 0;
#X restore 160 368 pd debounce;
#N canvas 0 50 551 401 pauseResume 0;
#X obj 84 115 t b b;
#X msg 245 255 1;
#X msg 84 255 0;
#X obj 245 115 t b b;
#X obj 84 52 inlet;
#X obj 245 52 inlet;
#X obj 429 204 outlet;
#X obj 429 314 outlet;
#X msg 272 165 send /pause;
#X msg 245 285 send /wfs/input/all/pause \$1;
#X msg 111 165 send /resume;
#X connect 0 0 2 0;
#X connect 0 1 10 0;
#X connect 1 0 9 0;
#X connect 2 0 9 0;
#X connect 3 0 1 0;
#X connect 3 1 8 0;
#X connect 4 0 0 0;
#X connect 5 0 3 0;
#X connect 8 0 6 0;
#X connect 9 0 7 0;
#X connect 10 0 6 0;
#X restore 160 491 pd pauseResume;
#X text 536 344 1: QLab Go;
#X text 536 364 2: QLab&WFS Pause;
#X text 536 384 3: QLab&WFS Resume;
#X text 536 404 4:;
#X text 536 424 5:;
#X obj 700 550 loadbang;
#X msg 53 52 open 0x0b33 0x0020 \, 1;
#X obj 86 191 route abs_ry;
#X obj 86 219 change;
#X obj 119 259 route btn_4 btn_5 btn_6 btn_7 btn_8;
#X obj 53 140 route rel abs key;
#X obj 53 165 route rel_wheel;
#X obj 53 88 hid;
#X obj 398 32 declare -stdlib hid mrpeach;
#X msg 119 523 send /go;
#X obj 454 634 mrpeach/packOSC;
#X msg 53 739 send /wfs/move/speed \$1;
#X obj 453 781 mrpeach/packOSC;
#X text 526 324 btn_4~8;
#X text 526 304 abs_ry jog (int. rign): select cue QLab;
#X text 526 284 rel_wheel shuttle (ext. ring): movement speed WFS;
#X text 396 74 patch for Pure Data Extended 0.43.4;
#X obj 586 677 mrpeach/udpsend;
#X obj 585 824 mrpeach/udpsend;
#X msg 596 614 connect 192.168.1.35 53000;
#X msg 605 741 connect 192.168.1.48 8050;
#X msg 595 761 connect 192.168.1.38 8050;
#X msg 585 781 connect 192.168.1.34 8050;
#X connect 0 0 20 0;
#X connect 1 0 28 0;
#X connect 2 0 13 1;
#X connect 3 0 5 0;
#X connect 4 0 6 0;
#X connect 9 0 36 0;
#X connect 9 0 37 0;
#X connect 10 0 36 0;
#X connect 11 0 29 0;
#X connect 12 0 13 0;
#X connect 13 0 31 0;
#X connect 13 1 29 0;
#X connect 19 0 10 0;
#X connect 19 0 41 0;
#X connect 20 0 26 0;
#X connect 21 0 22 0;
#X connect 22 0 11 0;
#X connect 23 0 1 0;
#X connect 23 1 12 0;
#X connect 23 2 2 0;
#X connect 23 3 3 0;
#X connect 23 4 4 0;
#X connect 24 0 25 0;
#X connect 24 1 21 0;
#X connect 24 2 23 0;
#X connect 25 0 30 0;
#X connect 26 0 24 0;
#X connect 28 0 29 0;
#X connect 29 0 36 0;
#X connect 30 0 31 0;
#X connect 31 0 37 0;
#X connect 38 0 36 0;
#X connect 39 0 37 0;
#X connect 40 0 37 0;
#X connect 41 0 37 0;
