#N canvas 47 53 907 938 10;
#X declare -stdlib hidin;
#X text 281 324 7-11 buttons;
#X obj 53 18 loadbang;
#X obj 53 306 route 1 2 7 8 9 10 11;
#X obj 127 138 route ShuttleXpress;
#X msg 127 113 \$2 \$1;
#X obj 127 164 t b i;
#X obj 127 214 i;
#X obj 127 189 delay 1000;
#X msg 63 56 close \, bang;
#X msg 127 239 open \$1 \, start;
#N canvas 0 50 450 300 debounce 0;
#X obj 58 67 sel 0 1;
#X msg 79 119 1;
#X obj 130 97 t b b;
#X msg 130 118 0;
#X obj 77 143 spigot 1;
#X obj 58 97 delay 200;
#X obj 58 34 inlet;
#X obj 77 174 outlet;
#X connect 0 0 5 0;
#X connect 0 1 2 0;
#X connect 1 0 4 1;
#X connect 2 0 3 0;
#X connect 2 1 4 0;
#X connect 3 0 4 1;
#X connect 4 0 7 0;
#X connect 5 0 1 0;
#X connect 6 0 0 0;
#X restore 94 344 pd debounce;
#N canvas 0 50 450 300 debounce 0;
#X obj 58 67 sel 0 1;
#X msg 79 119 1;
#X obj 130 97 t b b;
#X msg 130 118 0;
#X obj 77 143 spigot 1;
#X obj 58 97 delay 200;
#X obj 58 34 inlet;
#X obj 77 174 outlet;
#X connect 0 0 5 0;
#X connect 0 1 2 0;
#X connect 1 0 4 1;
#X connect 2 0 3 0;
#X connect 2 1 4 0;
#X connect 3 0 4 1;
#X connect 4 0 7 0;
#X connect 5 0 1 0;
#X connect 6 0 0 0;
#X restore 135 393 pd debounce;
#N canvas 0 50 450 300 debounce 0;
#X obj 58 67 sel 0 1;
#X msg 79 119 1;
#X obj 130 97 t b b;
#X msg 130 118 0;
#X obj 77 143 spigot 1;
#X obj 58 97 delay 200;
#X obj 58 34 inlet;
#X obj 77 174 outlet;
#X connect 0 0 5 0;
#X connect 0 1 2 0;
#X connect 1 0 4 1;
#X connect 2 0 3 0;
#X connect 2 1 4 0;
#X connect 3 0 4 1;
#X connect 4 0 7 0;
#X connect 5 0 1 0;
#X connect 6 0 0 0;
#X restore 155 417 pd debounce;
#N canvas 0 50 450 300 debounce 0;
#X obj 58 67 sel 0 1;
#X msg 79 119 1;
#X obj 130 97 t b b;
#X msg 130 118 0;
#X obj 77 143 spigot 1;
#X obj 58 97 delay 200;
#X obj 58 34 inlet;
#X obj 77 174 outlet;
#X connect 0 0 5 0;
#X connect 0 1 2 0;
#X connect 1 0 4 1;
#X connect 2 0 3 0;
#X connect 2 1 4 0;
#X connect 3 0 4 1;
#X connect 4 0 7 0;
#X connect 5 0 1 0;
#X connect 6 0 0 0;
#X restore 176 441 pd debounce;
#X obj 155 464 bng 15 250 50 0 empty empty empty 17 7 0 10 -262144
-1 -1;
#X obj 176 464 bng 15 250 50 0 empty empty empty 17 7 0 10 -262144
-1 -1;
#X text 833 782 WFS;
#X text 832 635 QLab;
#X msg 702 707 disconnect;
#X obj 586 677 netsend -u -b;
#X obj 454 634 list prepend send;
#X obj 454 655 list trim;
#X obj 94 524 oscformat go;
#X msg 586 634 connect 192.168.1.45 53000;
#N canvas 0 50 450 385 QLabSelectPreviousNext 0;
#X obj 82 125 expr $f1-$f2;
#X obj 50 92 t f f;
#X obj 50 44 inlet;
#X obj 140 254 oscformat select next;
#X obj 82 223 oscformat select previous;
#X obj 82 329 outlet;
#X obj 82 147 sel 255 -1 1 -255;
#X connect 0 0 6 0;
#X connect 1 0 0 1;
#X connect 1 1 0 0;
#X connect 2 0 1 0;
#X connect 3 0 5 0;
#X connect 4 0 5 0;
#X connect 6 0 4 0;
#X connect 6 1 4 0;
#X connect 6 2 3 0;
#X connect 6 3 3 0;
#X restore 73 556 pd QLabSelectPreviousNext;
#X obj 453 781 list prepend send;
#X obj 453 802 list trim;
#X obj 585 824 netsend -u -b;
#N canvas 0 50 450 300 debounce 0;
#X obj 58 67 sel 0 1;
#X msg 79 119 1;
#X obj 130 97 t b b;
#X msg 130 118 0;
#X obj 77 143 spigot 1;
#X obj 58 97 delay 200;
#X obj 58 34 inlet;
#X obj 77 174 outlet;
#X connect 0 0 5 0;
#X connect 0 1 2 0;
#X connect 1 0 4 1;
#X connect 2 0 3 0;
#X connect 2 1 4 0;
#X connect 3 0 4 1;
#X connect 4 0 7 0;
#X connect 5 0 1 0;
#X connect 6 0 0 0;
#X restore 114 368 pd debounce;
#N canvas 0 50 551 401 pauseResume 0;
#X obj 277 165 oscformat pause;
#X obj 116 165 oscformat resume;
#X obj 84 115 t b b;
#X msg 245 255 1;
#X msg 84 255 0;
#X obj 245 115 t b b;
#X obj 84 52 inlet;
#X obj 245 52 inlet;
#X obj 429 204 outlet;
#X obj 429 314 outlet;
#X obj 245 285 oscformat wfs input all curveXYZ pause;
#X connect 0 0 8 0;
#X connect 1 0 8 0;
#X connect 2 0 4 0;
#X connect 2 1 1 0;
#X connect 3 0 10 0;
#X connect 4 0 10 0;
#X connect 5 0 3 0;
#X connect 5 1 0 0;
#X connect 6 0 2 0;
#X connect 7 0 5 0;
#X connect 10 0 9 0;
#X restore 114 491 pd pauseResume;
#X text 281 284 1 shuttle (ext. ring): movement speed WFS;
#X text 281 304 2 jog (int. rign): select cue QLab;
#X text 291 344 1: QLab Go;
#X text 291 364 2: QLab&WFS Pause;
#X text 291 384 3: QLab&WFS Resume;
#X text 291 404 4:;
#X text 291 424 5:;
#X obj 53 88 hidin/hidin;
#X obj 700 550 loadbang;
#X text 379 32 Patch for Pure Data vanilla on Windows;
#X obj 381 61 declare -stdlib hidin;
#X msg 596 614 connect 192.168.1.35 53000;
#X msg 585 781 connect 192.168.1.34 8050;
#X msg 605 741 connect 192.168.1.48 8050;
#X msg 595 761 connect 192.168.1.38 8050;
#X obj 53 717 oscformat wfs input all curveXYZ moveSpeed;
#X obj 53 685 expr if($f1<128 \, 100+$f1/.07 \, 100+($f1-256)/.07)
;
#X connect 1 0 37 0;
#X connect 2 0 46 0;
#X connect 2 1 24 0;
#X connect 2 2 10 0;
#X connect 2 3 28 0;
#X connect 2 4 11 0;
#X connect 2 5 12 0;
#X connect 2 6 13 0;
#X connect 3 0 5 0;
#X connect 4 0 3 0;
#X connect 5 0 7 0;
#X connect 5 1 6 1;
#X connect 6 0 9 0;
#X connect 7 0 6 0;
#X connect 8 0 37 0;
#X connect 9 0 37 0;
#X connect 10 0 22 0;
#X connect 11 0 29 1;
#X connect 12 0 14 0;
#X connect 13 0 15 0;
#X connect 18 0 19 0;
#X connect 18 0 27 0;
#X connect 20 0 21 0;
#X connect 21 0 19 0;
#X connect 22 0 20 0;
#X connect 23 0 19 0;
#X connect 24 0 20 0;
#X connect 25 0 26 0;
#X connect 26 0 27 0;
#X connect 28 0 29 0;
#X connect 29 0 25 0;
#X connect 29 1 20 0;
#X connect 37 0 2 0;
#X connect 37 1 4 0;
#X connect 38 0 23 0;
#X connect 38 0 42 0;
#X connect 41 0 19 0;
#X connect 42 0 27 0;
#X connect 43 0 27 0;
#X connect 44 0 27 0;
#X connect 45 0 25 0;
#X connect 46 0 45 0;
