{
	"patcher" : 	{
		"fileversion" : 1,
		"appversion" : 		{
			"major" : 7,
			"minor" : 3,
			"revision" : 5,
			"architecture" : "x64",
			"modernui" : 1
		}
,
		"rect" : [ 64.0, 101.0, 1552.0, 885.0 ],
		"bgcolor" : [ 0.0, 0.0, 0.0, 1.0 ],
		"editing_bgcolor" : [ 0.0, 0.0, 0.0, 1.0 ],
		"bglocked" : 0,
		"openinpresentation" : 0,
		"default_fontsize" : 12.0,
		"default_fontface" : 0,
		"default_fontname" : "Arial",
		"gridonopen" : 1,
		"gridsize" : [ 15.0, 15.0 ],
		"gridsnaponopen" : 1,
		"objectsnaponopen" : 1,
		"statusbarvisible" : 2,
		"toolbarvisible" : 1,
		"lefttoolbarpinned" : 0,
		"toptoolbarpinned" : 0,
		"righttoolbarpinned" : 0,
		"bottomtoolbarpinned" : 0,
		"toolbars_unpinned_last_save" : 0,
		"tallnewobj" : 0,
		"boxanimatetime" : 200,
		"enablehscroll" : 1,
		"enablevscroll" : 1,
		"devicewidth" : 0.0,
		"description" : "",
		"digest" : "",
		"tags" : "",
		"style" : "",
		"subpatcher_template" : "dark",
		"boxes" : [ 			{
				"box" : 				{
					"id" : "obj-47",
					"maxclass" : "newobj",
					"numinlets" : 0,
					"numoutlets" : 0,
					"patcher" : 					{
						"fileversion" : 1,
						"appversion" : 						{
							"major" : 7,
							"minor" : 3,
							"revision" : 5,
							"architecture" : "x64",
							"modernui" : 1
						}
,
						"rect" : [ 0.0, 0.0, 640.0, 480.0 ],
						"bglocked" : 0,
						"openinpresentation" : 0,
						"default_fontsize" : 12.0,
						"default_fontface" : 0,
						"default_fontname" : "Arial",
						"gridonopen" : 1,
						"gridsize" : [ 15.0, 15.0 ],
						"gridsnaponopen" : 1,
						"objectsnaponopen" : 1,
						"statusbarvisible" : 2,
						"toolbarvisible" : 1,
						"lefttoolbarpinned" : 0,
						"toptoolbarpinned" : 0,
						"righttoolbarpinned" : 0,
						"bottomtoolbarpinned" : 0,
						"toolbars_unpinned_last_save" : 0,
						"tallnewobj" : 0,
						"boxanimatetime" : 200,
						"enablehscroll" : 1,
						"enablevscroll" : 1,
						"devicewidth" : 0.0,
						"description" : "",
						"digest" : "",
						"tags" : "",
						"style" : "dark",
						"subpatcher_template" : "dark",
						"boxes" : [ 							{
								"box" : 								{
									"id" : "obj-37",
									"maxclass" : "newobj",
									"numinlets" : 1,
									"numoutlets" : 0,
									"patching_rect" : [ 50.0, 154.0, 114.0, 22.0 ],
									"style" : "",
									"text" : "s outputAttenuation"
								}

							}
, 							{
								"box" : 								{
									"id" : "obj-41",
									"maxclass" : "newobj",
									"numinlets" : 1,
									"numoutlets" : 1,
									"outlettype" : [ "" ],
									"patching_rect" : [ 50.0, 127.0, 130.0, 22.0 ],
									"style" : "",
									"text" : "vexpr pow(10.\\,$f1/20.)"
								}

							}
, 							{
								"box" : 								{
									"id" : "obj-42",
									"maxclass" : "newobj",
									"numinlets" : 0,
									"numoutlets" : 1,
									"outlettype" : [ "" ],
									"patching_rect" : [ 50.0, 100.0, 129.0, 22.0 ],
									"style" : "",
									"text" : "r outputAttenuationDB"
								}

							}
 ],
						"lines" : [ 							{
								"patchline" : 								{
									"destination" : [ "obj-37", 0 ],
									"source" : [ "obj-41", 0 ]
								}

							}
, 							{
								"patchline" : 								{
									"destination" : [ "obj-41", 0 ],
									"source" : [ "obj-42", 0 ]
								}

							}
 ],
						"styles" : [ 							{
								"name" : "dark",
								"parentstyle" : "",
								"multi" : 0
							}
 ],
						"toolbarexclusions" : [ "mixerslider" ]
					}
,
					"patching_rect" : [ 1291.0, 193.833344, 126.0, 22.0 ],
					"saved_object_attributes" : 					{
						"description" : "",
						"digest" : "",
						"globalpatchername" : "",
						"style" : "dark",
						"tags" : ""
					}
,
					"style" : "",
					"text" : "p attenuationMapping"
				}

			}
, 			{
				"box" : 				{
					"id" : "obj-33",
					"maxclass" : "newobj",
					"numinlets" : 0,
					"numoutlets" : 0,
					"patcher" : 					{
						"fileversion" : 1,
						"appversion" : 						{
							"major" : 7,
							"minor" : 3,
							"revision" : 5,
							"architecture" : "x64",
							"modernui" : 1
						}
,
						"rect" : [ 0.0, 0.0, 640.0, 480.0 ],
						"bglocked" : 0,
						"openinpresentation" : 0,
						"default_fontsize" : 12.0,
						"default_fontface" : 0,
						"default_fontname" : "Arial",
						"gridonopen" : 1,
						"gridsize" : [ 15.0, 15.0 ],
						"gridsnaponopen" : 1,
						"objectsnaponopen" : 1,
						"statusbarvisible" : 2,
						"toolbarvisible" : 1,
						"lefttoolbarpinned" : 0,
						"toptoolbarpinned" : 0,
						"righttoolbarpinned" : 0,
						"bottomtoolbarpinned" : 0,
						"toolbars_unpinned_last_save" : 0,
						"tallnewobj" : 0,
						"boxanimatetime" : 200,
						"enablehscroll" : 1,
						"enablevscroll" : 1,
						"devicewidth" : 0.0,
						"description" : "",
						"digest" : "",
						"tags" : "",
						"style" : "dark",
						"subpatcher_template" : "dark",
						"boxes" : [ 							{
								"box" : 								{
									"id" : "obj-26",
									"maxclass" : "newobj",
									"numinlets" : 1,
									"numoutlets" : 0,
									"patching_rect" : [ 50.0, 181.0, 155.0, 22.0 ],
									"style" : "",
									"text" : "s outputMiniLatencyEnable"
								}

							}
, 							{
								"box" : 								{
									"id" : "obj-24",
									"maxclass" : "newobj",
									"numinlets" : 2,
									"numoutlets" : 1,
									"outlettype" : [ "int" ],
									"patching_rect" : [ 50.0, 154.0, 29.5, 22.0 ],
									"style" : "",
									"text" : "> 0"
								}

							}
, 							{
								"box" : 								{
									"id" : "obj-22",
									"maxclass" : "newobj",
									"numinlets" : 2,
									"numoutlets" : 2,
									"outlettype" : [ "", "" ],
									"patching_rect" : [ 50.0, 127.0, 45.0, 22.0 ],
									"style" : "",
									"text" : "zl.sum"
								}

							}
, 							{
								"box" : 								{
									"id" : "obj-21",
									"maxclass" : "newobj",
									"numinlets" : 0,
									"numoutlets" : 1,
									"outlettype" : [ "" ],
									"patching_rect" : [ 50.0, 100.0, 115.0, 22.0 ],
									"style" : "",
									"text" : "r outputMiniLatency"
								}

							}
 ],
						"lines" : [ 							{
								"patchline" : 								{
									"destination" : [ "obj-22", 0 ],
									"source" : [ "obj-21", 0 ]
								}

							}
, 							{
								"patchline" : 								{
									"destination" : [ "obj-24", 0 ],
									"source" : [ "obj-22", 0 ]
								}

							}
, 							{
								"patchline" : 								{
									"destination" : [ "obj-26", 0 ],
									"source" : [ "obj-24", 0 ]
								}

							}
 ],
						"styles" : [ 							{
								"name" : "dark",
								"parentstyle" : "",
								"multi" : 0
							}
 ],
						"toolbarexclusions" : [ "mixerslider" ]
					}
,
					"patching_rect" : [ 1291.0, 649.5, 149.0, 22.0 ],
					"saved_object_attributes" : 					{
						"description" : "",
						"digest" : "",
						"globalpatchername" : "",
						"style" : "dark",
						"tags" : ""
					}
,
					"style" : "",
					"text" : "p minimumLatencyEnable"
				}

			}
, 			{
				"box" : 				{
					"id" : "obj-30",
					"maxclass" : "newobj",
					"numinlets" : 0,
					"numoutlets" : 0,
					"patcher" : 					{
						"fileversion" : 1,
						"appversion" : 						{
							"major" : 7,
							"minor" : 3,
							"revision" : 5,
							"architecture" : "x64",
							"modernui" : 1
						}
,
						"rect" : [ 0.0, 0.0, 640.0, 480.0 ],
						"bglocked" : 0,
						"openinpresentation" : 0,
						"default_fontsize" : 12.0,
						"default_fontface" : 0,
						"default_fontname" : "Arial",
						"gridonopen" : 1,
						"gridsize" : [ 15.0, 15.0 ],
						"gridsnaponopen" : 1,
						"objectsnaponopen" : 1,
						"statusbarvisible" : 2,
						"toolbarvisible" : 1,
						"lefttoolbarpinned" : 0,
						"toptoolbarpinned" : 0,
						"righttoolbarpinned" : 0,
						"bottomtoolbarpinned" : 0,
						"toolbars_unpinned_last_save" : 0,
						"tallnewobj" : 0,
						"boxanimatetime" : 200,
						"enablehscroll" : 1,
						"enablevscroll" : 1,
						"devicewidth" : 0.0,
						"description" : "",
						"digest" : "",
						"tags" : "",
						"style" : "dark",
						"subpatcher_template" : "dark",
						"boxes" : [ 							{
								"box" : 								{
									"id" : "obj-28",
									"maxclass" : "newobj",
									"numinlets" : 1,
									"numoutlets" : 0,
									"patching_rect" : [ 50.0, 154.0, 161.0, 22.0 ],
									"style" : "",
									"text" : "s outputDistanceAttenuation"
								}

							}
, 							{
								"box" : 								{
									"id" : "obj-30",
									"maxclass" : "newobj",
									"numinlets" : 1,
									"numoutlets" : 1,
									"outlettype" : [ "" ],
									"patching_rect" : [ 50.0, 127.0, 174.0, 22.0 ],
									"style" : "",
									"text" : "vexpr $f1/100. @scalarmode 1"
								}

							}
, 							{
								"box" : 								{
									"id" : "obj-33",
									"maxclass" : "newobj",
									"numinlets" : 0,
									"numoutlets" : 1,
									"outlettype" : [ "" ],
									"patching_rect" : [ 50.0, 100.0, 179.0, 22.0 ],
									"style" : "",
									"text" : "r outputDistanceAttenuation100"
								}

							}
 ],
						"lines" : [ 							{
								"patchline" : 								{
									"destination" : [ "obj-28", 0 ],
									"source" : [ "obj-30", 0 ]
								}

							}
, 							{
								"patchline" : 								{
									"destination" : [ "obj-30", 0 ],
									"source" : [ "obj-33", 0 ]
								}

							}
 ],
						"styles" : [ 							{
								"name" : "dark",
								"parentstyle" : "",
								"multi" : 0
							}
 ],
						"toolbarexclusions" : [ "mixerslider" ]
					}
,
					"patching_rect" : [ 1291.0, 762.0, 126.0, 22.0 ],
					"saved_object_attributes" : 					{
						"description" : "",
						"digest" : "",
						"globalpatchername" : "",
						"style" : "dark",
						"tags" : ""
					}
,
					"style" : "",
					"text" : "p distanceAttenuation"
				}

			}
, 			{
				"box" : 				{
					"id" : "obj-25",
					"maxclass" : "newobj",
					"numinlets" : 0,
					"numoutlets" : 0,
					"patcher" : 					{
						"fileversion" : 1,
						"appversion" : 						{
							"major" : 7,
							"minor" : 3,
							"revision" : 5,
							"architecture" : "x64",
							"modernui" : 1
						}
,
						"rect" : [ 67.0, 110.0, 640.0, 480.0 ],
						"bglocked" : 0,
						"openinpresentation" : 0,
						"default_fontsize" : 12.0,
						"default_fontface" : 0,
						"default_fontname" : "Arial",
						"gridonopen" : 1,
						"gridsize" : [ 15.0, 15.0 ],
						"gridsnaponopen" : 1,
						"objectsnaponopen" : 1,
						"statusbarvisible" : 2,
						"toolbarvisible" : 1,
						"lefttoolbarpinned" : 0,
						"toptoolbarpinned" : 0,
						"righttoolbarpinned" : 0,
						"bottomtoolbarpinned" : 0,
						"toolbars_unpinned_last_save" : 0,
						"tallnewobj" : 0,
						"boxanimatetime" : 200,
						"enablehscroll" : 1,
						"enablevscroll" : 1,
						"devicewidth" : 0.0,
						"description" : "",
						"digest" : "",
						"tags" : "",
						"style" : "dark",
						"subpatcher_template" : "dark",
						"boxes" : [ 							{
								"box" : 								{
									"id" : "obj-91",
									"maxclass" : "newobj",
									"numinlets" : 0,
									"numoutlets" : 3,
									"outlettype" : [ "float", "float", "float" ],
									"patcher" : 									{
										"fileversion" : 1,
										"appversion" : 										{
											"major" : 7,
											"minor" : 3,
											"revision" : 5,
											"architecture" : "x64",
											"modernui" : 1
										}
,
										"rect" : [ 67.0, 110.0, 219.0, 480.0 ],
										"bglocked" : 0,
										"openinpresentation" : 0,
										"default_fontsize" : 12.0,
										"default_fontface" : 0,
										"default_fontname" : "Arial",
										"gridonopen" : 1,
										"gridsize" : [ 15.0, 15.0 ],
										"gridsnaponopen" : 1,
										"objectsnaponopen" : 1,
										"statusbarvisible" : 2,
										"toolbarvisible" : 1,
										"lefttoolbarpinned" : 0,
										"toptoolbarpinned" : 0,
										"righttoolbarpinned" : 0,
										"bottomtoolbarpinned" : 0,
										"toolbars_unpinned_last_save" : 0,
										"tallnewobj" : 0,
										"boxanimatetime" : 200,
										"enablehscroll" : 1,
										"enablevscroll" : 1,
										"devicewidth" : 0.0,
										"description" : "",
										"digest" : "",
										"tags" : "",
										"style" : "dark",
										"subpatcher_template" : "dark",
										"boxes" : [ 											{
												"box" : 												{
													"comment" : "Pi/2",
													"hint" : "Pi/2",
													"id" : "obj-3",
													"index" : 3,
													"maxclass" : "outlet",
													"numinlets" : 1,
													"numoutlets" : 0,
													"patching_rect" : [ 121.0, 215.0, 30.0, 30.0 ],
													"style" : ""
												}

											}
, 											{
												"box" : 												{
													"comment" : "Pi",
													"hint" : "Pi",
													"id" : "obj-2",
													"index" : 2,
													"maxclass" : "outlet",
													"numinlets" : 1,
													"numoutlets" : 0,
													"patching_rect" : [ 85.0, 215.0, 30.0, 30.0 ],
													"style" : ""
												}

											}
, 											{
												"box" : 												{
													"comment" : "2Pi",
													"hint" : "2Pi",
													"id" : "obj-1",
													"index" : 1,
													"maxclass" : "outlet",
													"numinlets" : 1,
													"numoutlets" : 0,
													"patching_rect" : [ 49.0, 215.0, 30.0, 30.0 ],
													"style" : ""
												}

											}
, 											{
												"box" : 												{
													"id" : "obj-84",
													"maxclass" : "comment",
													"numinlets" : 1,
													"numoutlets" : 0,
													"patching_rect" : [ 123.5, 104.0, 30.0, 20.0 ],
													"style" : "",
													"text" : "Pi/2"
												}

											}
, 											{
												"box" : 												{
													"id" : "obj-82",
													"maxclass" : "comment",
													"numinlets" : 1,
													"numoutlets" : 0,
													"patching_rect" : [ 121.0, 145.0, 20.0, 20.0 ],
													"style" : "",
													"text" : "Pi"
												}

											}
, 											{
												"box" : 												{
													"id" : "obj-70",
													"maxclass" : "comment",
													"numinlets" : 1,
													"numoutlets" : 0,
													"patching_rect" : [ 16.0, 145.0, 26.0, 20.0 ],
													"style" : "",
													"text" : "2Pi"
												}

											}
, 											{
												"box" : 												{
													"id" : "obj-62",
													"maxclass" : "newobj",
													"numinlets" : 2,
													"numoutlets" : 1,
													"outlettype" : [ "float" ],
													"patching_rect" : [ 49.0, 144.0, 29.5, 22.0 ],
													"style" : "",
													"text" : "* 4."
												}

											}
, 											{
												"box" : 												{
													"id" : "obj-61",
													"maxclass" : "newobj",
													"numinlets" : 2,
													"numoutlets" : 1,
													"outlettype" : [ "float" ],
													"patching_rect" : [ 85.0, 144.0, 29.5, 22.0 ],
													"style" : "",
													"text" : "* 2."
												}

											}
, 											{
												"box" : 												{
													"id" : "obj-60",
													"maxclass" : "newobj",
													"numinlets" : 1,
													"numoutlets" : 3,
													"outlettype" : [ "float", "float", "float" ],
													"patching_rect" : [ 74.5, 104.0, 40.0, 22.0 ],
													"style" : "",
													"text" : "t f f f"
												}

											}
, 											{
												"box" : 												{
													"id" : "obj-49",
													"maxclass" : "newobj",
													"numinlets" : 1,
													"numoutlets" : 1,
													"outlettype" : [ "float" ],
													"patching_rect" : [ 74.5, 70.0, 46.0, 22.0 ],
													"style" : "",
													"text" : "asin 1."
												}

											}
, 											{
												"box" : 												{
													"id" : "obj-45",
													"maxclass" : "newobj",
													"numinlets" : 1,
													"numoutlets" : 1,
													"outlettype" : [ "bang" ],
													"patching_rect" : [ 74.5, 39.0, 60.0, 22.0 ],
													"style" : "",
													"text" : "loadbang"
												}

											}
 ],
										"lines" : [ 											{
												"patchline" : 												{
													"destination" : [ "obj-49", 0 ],
													"source" : [ "obj-45", 0 ]
												}

											}
, 											{
												"patchline" : 												{
													"destination" : [ "obj-60", 0 ],
													"source" : [ "obj-49", 0 ]
												}

											}
, 											{
												"patchline" : 												{
													"destination" : [ "obj-3", 0 ],
													"source" : [ "obj-60", 2 ]
												}

											}
, 											{
												"patchline" : 												{
													"destination" : [ "obj-61", 0 ],
													"source" : [ "obj-60", 1 ]
												}

											}
, 											{
												"patchline" : 												{
													"destination" : [ "obj-62", 0 ],
													"source" : [ "obj-60", 0 ]
												}

											}
, 											{
												"patchline" : 												{
													"destination" : [ "obj-2", 0 ],
													"source" : [ "obj-61", 0 ]
												}

											}
, 											{
												"patchline" : 												{
													"destination" : [ "obj-1", 0 ],
													"source" : [ "obj-62", 0 ]
												}

											}
 ],
										"styles" : [ 											{
												"name" : "dark",
												"parentstyle" : "",
												"multi" : 0
											}
, 											{
												"name" : "dark-1",
												"default" : 												{
													"textcolor" : [ 1.0, 1.0, 1.0, 1.0 ],
													"fontname" : [ "Arial" ]
												}
,
												"parentstyle" : "",
												"multi" : 0
											}
 ],
										"toolbarexclusions" : [ "mixerslider" ],
										"textcolor" : [ 1.0, 1.0, 1.0, 1.0 ]
									}
,
									"patching_rect" : [ 194.0, 100.0, 83.0, 22.0 ],
									"saved_object_attributes" : 									{
										"description" : "",
										"digest" : "",
										"globalpatchername" : "",
										"style" : "dark",
										"tags" : "",
										"textcolor" : [ 1.0, 1.0, 1.0, 1.0 ]
									}
,
									"style" : "",
									"text" : "p 2Pi_Pi_Pi/2"
								}

							}
, 							{
								"box" : 								{
									"id" : "obj-43",
									"maxclass" : "newobj",
									"numinlets" : 1,
									"numoutlets" : 0,
									"patching_rect" : [ 50.0, 268.0, 100.0, 22.0 ],
									"style" : "",
									"text" : "s outputAngleOn"
								}

							}
, 							{
								"box" : 								{
									"id" : "obj-45",
									"maxclass" : "newobj",
									"numinlets" : 2,
									"numoutlets" : 1,
									"outlettype" : [ "" ],
									"patching_rect" : [ 50.0, 241.0, 195.0, 22.0 ],
									"style" : "",
									"text" : "vexpr $f1*$f2/180. @scalarmode 1"
								}

							}
, 							{
								"box" : 								{
									"id" : "obj-46",
									"maxclass" : "newobj",
									"numinlets" : 0,
									"numoutlets" : 1,
									"outlettype" : [ "" ],
									"patching_rect" : [ 50.0, 214.0, 120.0, 22.0 ],
									"style" : "",
									"text" : "r outputAngleOnDeg"
								}

							}
, 							{
								"box" : 								{
									"id" : "obj-37",
									"maxclass" : "newobj",
									"numinlets" : 1,
									"numoutlets" : 0,
									"patching_rect" : [ 50.0, 181.349976, 112.0, 22.0 ],
									"style" : "",
									"text" : "s outputOrientation"
								}

							}
, 							{
								"box" : 								{
									"id" : "obj-41",
									"maxclass" : "newobj",
									"numinlets" : 2,
									"numoutlets" : 1,
									"outlettype" : [ "" ],
									"patching_rect" : [ 50.0, 154.349976, 195.0, 22.0 ],
									"style" : "",
									"text" : "vexpr $f1*$f2/180. @scalarmode 1"
								}

							}
, 							{
								"box" : 								{
									"id" : "obj-42",
									"maxclass" : "newobj",
									"numinlets" : 0,
									"numoutlets" : 1,
									"outlettype" : [ "" ],
									"patching_rect" : [ 50.0, 127.349976, 132.0, 22.0 ],
									"style" : "",
									"text" : "r outputOrientationDeg"
								}

							}
, 							{
								"box" : 								{
									"id" : "obj-34",
									"maxclass" : "newobj",
									"numinlets" : 1,
									"numoutlets" : 0,
									"patching_rect" : [ 50.0, 355.75, 100.0, 22.0 ],
									"style" : "",
									"text" : "s outputAngleOff"
								}

							}
, 							{
								"box" : 								{
									"id" : "obj-35",
									"maxclass" : "newobj",
									"numinlets" : 2,
									"numoutlets" : 1,
									"outlettype" : [ "" ],
									"patching_rect" : [ 50.0, 328.75, 231.0, 22.0 ],
									"style" : "",
									"text" : "vexpr (180.-$f1)*$f2/180. @scalarmode 1"
								}

							}
, 							{
								"box" : 								{
									"id" : "obj-36",
									"maxclass" : "newobj",
									"numinlets" : 0,
									"numoutlets" : 1,
									"outlettype" : [ "" ],
									"patching_rect" : [ 50.0, 301.75, 120.0, 22.0 ],
									"style" : "",
									"text" : "r outputAngleOffDeg"
								}

							}
 ],
						"lines" : [ 							{
								"patchline" : 								{
									"destination" : [ "obj-34", 0 ],
									"source" : [ "obj-35", 0 ]
								}

							}
, 							{
								"patchline" : 								{
									"destination" : [ "obj-35", 0 ],
									"source" : [ "obj-36", 0 ]
								}

							}
, 							{
								"patchline" : 								{
									"destination" : [ "obj-37", 0 ],
									"source" : [ "obj-41", 0 ]
								}

							}
, 							{
								"patchline" : 								{
									"destination" : [ "obj-41", 0 ],
									"source" : [ "obj-42", 0 ]
								}

							}
, 							{
								"patchline" : 								{
									"destination" : [ "obj-43", 0 ],
									"source" : [ "obj-45", 0 ]
								}

							}
, 							{
								"patchline" : 								{
									"destination" : [ "obj-45", 0 ],
									"source" : [ "obj-46", 0 ]
								}

							}
, 							{
								"patchline" : 								{
									"destination" : [ "obj-35", 1 ],
									"order" : 0,
									"source" : [ "obj-91", 1 ]
								}

							}
, 							{
								"patchline" : 								{
									"destination" : [ "obj-41", 1 ],
									"order" : 2,
									"source" : [ "obj-91", 1 ]
								}

							}
, 							{
								"patchline" : 								{
									"destination" : [ "obj-45", 1 ],
									"order" : 1,
									"source" : [ "obj-91", 1 ]
								}

							}
 ],
						"styles" : [ 							{
								"name" : "dark",
								"parentstyle" : "",
								"multi" : 0
							}
 ],
						"toolbarexclusions" : [ "mixerslider" ]
					}
,
					"patching_rect" : [ 1291.0, 429.5, 123.0, 22.0 ],
					"saved_object_attributes" : 					{
						"description" : "",
						"digest" : "",
						"globalpatchername" : "",
						"style" : "dark",
						"tags" : ""
					}
,
					"style" : "",
					"text" : "p orientationMapping"
				}

			}
, 			{
				"box" : 				{
					"id" : "obj-107",
					"maxclass" : "newobj",
					"numinlets" : 14,
					"numoutlets" : 0,
					"patcher" : 					{
						"fileversion" : 1,
						"appversion" : 						{
							"major" : 7,
							"minor" : 3,
							"revision" : 5,
							"architecture" : "x64",
							"modernui" : 1
						}
,
						"rect" : [ 67.0, 110.0, 556.0, 456.0 ],
						"bglocked" : 0,
						"openinpresentation" : 0,
						"default_fontsize" : 12.0,
						"default_fontface" : 0,
						"default_fontname" : "Arial",
						"gridonopen" : 1,
						"gridsize" : [ 15.0, 15.0 ],
						"gridsnaponopen" : 1,
						"objectsnaponopen" : 1,
						"statusbarvisible" : 2,
						"toolbarvisible" : 1,
						"lefttoolbarpinned" : 0,
						"toptoolbarpinned" : 0,
						"righttoolbarpinned" : 0,
						"bottomtoolbarpinned" : 0,
						"toolbars_unpinned_last_save" : 0,
						"tallnewobj" : 0,
						"boxanimatetime" : 200,
						"enablehscroll" : 1,
						"enablevscroll" : 1,
						"devicewidth" : 0.0,
						"description" : "",
						"digest" : "",
						"tags" : "",
						"style" : "dark",
						"subpatcher_template" : "dark",
						"boxes" : [ 							{
								"box" : 								{
									"id" : "obj-1",
									"maxclass" : "newobj",
									"numinlets" : 2,
									"numoutlets" : 1,
									"outlettype" : [ "int" ],
									"patching_rect" : [ 236.844849, 266.0, 31.0, 22.0 ],
									"style" : "",
									"text" : "- #2"
								}

							}
, 							{
								"box" : 								{
									"id" : "obj-92",
									"maxclass" : "newobj",
									"numinlets" : 1,
									"numoutlets" : 1,
									"outlettype" : [ "" ],
									"patching_rect" : [ 236.844849, 367.0, 119.0, 22.0 ],
									"style" : "",
									"text" : "prepend reverbFeed"
								}

							}
, 							{
								"box" : 								{
									"id" : "obj-91",
									"maxclass" : "newobj",
									"numinlets" : 2,
									"numoutlets" : 2,
									"outlettype" : [ "", "" ],
									"patching_rect" : [ 236.844849, 335.0, 41.0, 22.0 ],
									"style" : "",
									"text" : "zl.join"
								}

							}
, 							{
								"box" : 								{
									"id" : "obj-90",
									"maxclass" : "newobj",
									"numinlets" : 2,
									"numoutlets" : 2,
									"outlettype" : [ "", "" ],
									"patching_rect" : [ 201.844849, 303.0, 41.0, 22.0 ],
									"style" : "",
									"text" : "zl.join"
								}

							}
, 							{
								"box" : 								{
									"id" : "obj-26",
									"maxclass" : "newobj",
									"numinlets" : 13,
									"numoutlets" : 1,
									"outlettype" : [ "" ],
									"patching_rect" : [ 32.0, 132.0, 145.0, 22.0 ],
									"style" : "",
									"text" : "pack f f f f f i i i f i i i i"
								}

							}
, 							{
								"box" : 								{
									"id" : "obj-88",
									"maxclass" : "newobj",
									"numinlets" : 1,
									"numoutlets" : 2,
									"outlettype" : [ "int", "int" ],
									"patching_rect" : [ 191.344849, 132.0, 29.5, 22.0 ],
									"style" : "",
									"text" : "t i i"
								}

							}
, 							{
								"box" : 								{
									"id" : "obj-87",
									"maxclass" : "newobj",
									"numinlets" : 2,
									"numoutlets" : 2,
									"outlettype" : [ "", "" ],
									"patching_rect" : [ 201.844849, 236.0, 54.0, 22.0 ],
									"style" : "",
									"text" : "gate 2 1"
								}

							}
, 							{
								"box" : 								{
									"id" : "obj-86",
									"maxclass" : "newobj",
									"numinlets" : 2,
									"numoutlets" : 1,
									"outlettype" : [ "int" ],
									"patching_rect" : [ 201.844849, 201.0, 29.5, 22.0 ],
									"style" : "",
									"text" : "+ 1"
								}

							}
, 							{
								"box" : 								{
									"id" : "obj-85",
									"maxclass" : "newobj",
									"numinlets" : 2,
									"numoutlets" : 1,
									"outlettype" : [ "int" ],
									"patching_rect" : [ 201.844849, 168.0, 34.0, 22.0 ],
									"style" : "",
									"text" : "> #2"
								}

							}
, 							{
								"box" : 								{
									"id" : "obj-112",
									"maxclass" : "newobj",
									"numinlets" : 1,
									"numoutlets" : 0,
									"patching_rect" : [ 201.844849, 409.0, 101.0, 22.0 ],
									"style" : "",
									"text" : "send outputSave"
								}

							}
, 							{
								"box" : 								{
									"comment" : "",
									"id" : "obj-93",
									"index" : 1,
									"maxclass" : "inlet",
									"numinlets" : 0,
									"numoutlets" : 1,
									"outlettype" : [ "" ],
									"patching_rect" : [ 32.0, 28.0, 30.0, 30.0 ],
									"style" : ""
								}

							}
, 							{
								"box" : 								{
									"comment" : "",
									"id" : "obj-94",
									"index" : 2,
									"maxclass" : "inlet",
									"numinlets" : 0,
									"numoutlets" : 1,
									"outlettype" : [ "" ],
									"patching_rect" : [ 67.0, 28.0, 30.0, 30.0 ],
									"style" : ""
								}

							}
, 							{
								"box" : 								{
									"comment" : "",
									"id" : "obj-95",
									"index" : 3,
									"maxclass" : "inlet",
									"numinlets" : 0,
									"numoutlets" : 1,
									"outlettype" : [ "" ],
									"patching_rect" : [ 102.0, 28.0, 30.0, 30.0 ],
									"style" : ""
								}

							}
, 							{
								"box" : 								{
									"comment" : "",
									"id" : "obj-96",
									"index" : 4,
									"maxclass" : "inlet",
									"numinlets" : 0,
									"numoutlets" : 1,
									"outlettype" : [ "" ],
									"patching_rect" : [ 137.0, 28.0, 30.0, 30.0 ],
									"style" : ""
								}

							}
, 							{
								"box" : 								{
									"comment" : "",
									"id" : "obj-97",
									"index" : 5,
									"maxclass" : "inlet",
									"numinlets" : 0,
									"numoutlets" : 1,
									"outlettype" : [ "" ],
									"patching_rect" : [ 172.0, 28.0, 30.0, 30.0 ],
									"style" : ""
								}

							}
, 							{
								"box" : 								{
									"comment" : "",
									"id" : "obj-98",
									"index" : 6,
									"maxclass" : "inlet",
									"numinlets" : 0,
									"numoutlets" : 1,
									"outlettype" : [ "" ],
									"patching_rect" : [ 207.0, 28.0, 30.0, 30.0 ],
									"style" : ""
								}

							}
, 							{
								"box" : 								{
									"comment" : "",
									"id" : "obj-99",
									"index" : 7,
									"maxclass" : "inlet",
									"numinlets" : 0,
									"numoutlets" : 1,
									"outlettype" : [ "" ],
									"patching_rect" : [ 242.0, 28.0, 30.0, 30.0 ],
									"style" : ""
								}

							}
, 							{
								"box" : 								{
									"comment" : "",
									"id" : "obj-100",
									"index" : 8,
									"maxclass" : "inlet",
									"numinlets" : 0,
									"numoutlets" : 1,
									"outlettype" : [ "" ],
									"patching_rect" : [ 277.0, 28.0, 30.0, 30.0 ],
									"style" : ""
								}

							}
, 							{
								"box" : 								{
									"comment" : "",
									"id" : "obj-101",
									"index" : 9,
									"maxclass" : "inlet",
									"numinlets" : 0,
									"numoutlets" : 1,
									"outlettype" : [ "" ],
									"patching_rect" : [ 312.0, 28.0, 30.0, 30.0 ],
									"style" : ""
								}

							}
, 							{
								"box" : 								{
									"comment" : "",
									"id" : "obj-102",
									"index" : 10,
									"maxclass" : "inlet",
									"numinlets" : 0,
									"numoutlets" : 1,
									"outlettype" : [ "" ],
									"patching_rect" : [ 347.0, 28.0, 30.0, 30.0 ],
									"style" : ""
								}

							}
, 							{
								"box" : 								{
									"comment" : "",
									"id" : "obj-103",
									"index" : 11,
									"maxclass" : "inlet",
									"numinlets" : 0,
									"numoutlets" : 1,
									"outlettype" : [ "" ],
									"patching_rect" : [ 382.0, 28.0, 30.0, 30.0 ],
									"style" : ""
								}

							}
, 							{
								"box" : 								{
									"comment" : "",
									"id" : "obj-104",
									"index" : 12,
									"maxclass" : "inlet",
									"numinlets" : 0,
									"numoutlets" : 1,
									"outlettype" : [ "" ],
									"patching_rect" : [ 417.0, 28.0, 30.0, 30.0 ],
									"style" : ""
								}

							}
, 							{
								"box" : 								{
									"comment" : "",
									"id" : "obj-105",
									"index" : 13,
									"maxclass" : "inlet",
									"numinlets" : 0,
									"numoutlets" : 1,
									"outlettype" : [ "" ],
									"patching_rect" : [ 452.0, 28.0, 30.0, 30.0 ],
									"style" : ""
								}

							}
, 							{
								"box" : 								{
									"comment" : "",
									"id" : "obj-106",
									"index" : 14,
									"maxclass" : "inlet",
									"numinlets" : 0,
									"numoutlets" : 1,
									"outlettype" : [ "int" ],
									"patching_rect" : [ 487.0, 28.0, 30.0, 30.0 ],
									"style" : ""
								}

							}
 ],
						"lines" : [ 							{
								"patchline" : 								{
									"destination" : [ "obj-91", 0 ],
									"source" : [ "obj-1", 0 ]
								}

							}
, 							{
								"patchline" : 								{
									"destination" : [ "obj-26", 7 ],
									"source" : [ "obj-100", 0 ]
								}

							}
, 							{
								"patchline" : 								{
									"destination" : [ "obj-26", 8 ],
									"source" : [ "obj-101", 0 ]
								}

							}
, 							{
								"patchline" : 								{
									"destination" : [ "obj-26", 9 ],
									"source" : [ "obj-102", 0 ]
								}

							}
, 							{
								"patchline" : 								{
									"destination" : [ "obj-26", 10 ],
									"source" : [ "obj-103", 0 ]
								}

							}
, 							{
								"patchline" : 								{
									"destination" : [ "obj-26", 11 ],
									"source" : [ "obj-104", 0 ]
								}

							}
, 							{
								"patchline" : 								{
									"destination" : [ "obj-26", 12 ],
									"source" : [ "obj-105", 0 ]
								}

							}
, 							{
								"patchline" : 								{
									"destination" : [ "obj-88", 0 ],
									"source" : [ "obj-106", 0 ]
								}

							}
, 							{
								"patchline" : 								{
									"destination" : [ "obj-90", 1 ],
									"order" : 1,
									"source" : [ "obj-26", 0 ]
								}

							}
, 							{
								"patchline" : 								{
									"destination" : [ "obj-91", 1 ],
									"order" : 0,
									"source" : [ "obj-26", 0 ]
								}

							}
, 							{
								"patchline" : 								{
									"destination" : [ "obj-86", 0 ],
									"source" : [ "obj-85", 0 ]
								}

							}
, 							{
								"patchline" : 								{
									"destination" : [ "obj-87", 0 ],
									"source" : [ "obj-86", 0 ]
								}

							}
, 							{
								"patchline" : 								{
									"destination" : [ "obj-1", 0 ],
									"source" : [ "obj-87", 1 ]
								}

							}
, 							{
								"patchline" : 								{
									"destination" : [ "obj-90", 0 ],
									"source" : [ "obj-87", 0 ]
								}

							}
, 							{
								"patchline" : 								{
									"destination" : [ "obj-85", 0 ],
									"source" : [ "obj-88", 1 ]
								}

							}
, 							{
								"patchline" : 								{
									"destination" : [ "obj-87", 1 ],
									"source" : [ "obj-88", 0 ]
								}

							}
, 							{
								"patchline" : 								{
									"destination" : [ "obj-112", 0 ],
									"source" : [ "obj-90", 0 ]
								}

							}
, 							{
								"patchline" : 								{
									"destination" : [ "obj-92", 0 ],
									"source" : [ "obj-91", 0 ]
								}

							}
, 							{
								"patchline" : 								{
									"destination" : [ "obj-112", 0 ],
									"source" : [ "obj-92", 0 ]
								}

							}
, 							{
								"patchline" : 								{
									"destination" : [ "obj-26", 0 ],
									"source" : [ "obj-93", 0 ]
								}

							}
, 							{
								"patchline" : 								{
									"destination" : [ "obj-26", 1 ],
									"source" : [ "obj-94", 0 ]
								}

							}
, 							{
								"patchline" : 								{
									"destination" : [ "obj-26", 2 ],
									"source" : [ "obj-95", 0 ]
								}

							}
, 							{
								"patchline" : 								{
									"destination" : [ "obj-26", 3 ],
									"source" : [ "obj-96", 0 ]
								}

							}
, 							{
								"patchline" : 								{
									"destination" : [ "obj-26", 4 ],
									"source" : [ "obj-97", 0 ]
								}

							}
, 							{
								"patchline" : 								{
									"destination" : [ "obj-26", 5 ],
									"source" : [ "obj-98", 0 ]
								}

							}
, 							{
								"patchline" : 								{
									"destination" : [ "obj-26", 6 ],
									"source" : [ "obj-99", 0 ]
								}

							}
 ],
						"styles" : [ 							{
								"name" : "dark",
								"parentstyle" : "",
								"multi" : 0
							}
 ],
						"toolbarexclusions" : [ "mixerslider" ]
					}
,
					"patching_rect" : [ 1133.344849, 835.0, 252.0, 22.0 ],
					"saved_object_attributes" : 					{
						"description" : "",
						"digest" : "",
						"globalpatchername" : "",
						"style" : "dark",
						"tags" : ""
					}
,
					"style" : "",
					"text" : "p saveOutputs"
				}

			}
, 			{
				"box" : 				{
					"id" : "obj-84",
					"maxclass" : "newobj",
					"numinlets" : 1,
					"numoutlets" : 14,
					"outlettype" : [ "int", "int", "int", "int", "int", "int", "int", "int", "int", "int", "int", "int", "int", "int" ],
					"patching_rect" : [ 1366.344849, 50.899994, 155.5, 22.0 ],
					"style" : "",
					"text" : "t i i i i i i i i i i i i i i"
				}

			}
, 			{
				"box" : 				{
					"id" : "obj-132",
					"maxclass" : "newobj",
					"numinlets" : 0,
					"numoutlets" : 1,
					"outlettype" : [ "" ],
					"patching_rect" : [ 1366.344849, 22.799988, 99.0, 22.0 ],
					"style" : "",
					"text" : "r saveGetOutput"
				}

			}
, 			{
				"box" : 				{
					"id" : "obj-83",
					"maxclass" : "newobj",
					"numinlets" : 0,
					"numoutlets" : 13,
					"outlettype" : [ "", "", "", "", "", "", "", "", "", "", "", "", "" ],
					"patcher" : 					{
						"fileversion" : 1,
						"appversion" : 						{
							"major" : 7,
							"minor" : 3,
							"revision" : 5,
							"architecture" : "x64",
							"modernui" : 1
						}
,
						"rect" : [ 67.0, 110.0, 553.0, 670.0 ],
						"bglocked" : 0,
						"openinpresentation" : 0,
						"default_fontsize" : 12.0,
						"default_fontface" : 0,
						"default_fontname" : "Arial",
						"gridonopen" : 1,
						"gridsize" : [ 15.0, 15.0 ],
						"gridsnaponopen" : 1,
						"objectsnaponopen" : 1,
						"statusbarvisible" : 2,
						"toolbarvisible" : 1,
						"lefttoolbarpinned" : 0,
						"toptoolbarpinned" : 0,
						"righttoolbarpinned" : 0,
						"bottomtoolbarpinned" : 0,
						"toolbars_unpinned_last_save" : 0,
						"tallnewobj" : 0,
						"boxanimatetime" : 200,
						"enablehscroll" : 1,
						"enablevscroll" : 1,
						"devicewidth" : 0.0,
						"description" : "",
						"digest" : "",
						"tags" : "",
						"style" : "dark",
						"subpatcher_template" : "dark",
						"boxes" : [ 							{
								"box" : 								{
									"id" : "obj-2",
									"maxclass" : "newobj",
									"numinlets" : 2,
									"numoutlets" : 1,
									"outlettype" : [ "int" ],
									"patching_rect" : [ 322.267212, 87.0, 34.0, 22.0 ],
									"style" : "",
									"text" : "+ #2"
								}

							}
, 							{
								"box" : 								{
									"id" : "obj-3",
									"maxclass" : "newobj",
									"numinlets" : 2,
									"numoutlets" : 2,
									"outlettype" : [ "", "" ],
									"patching_rect" : [ 322.267212, 50.100006, 57.0, 22.0 ],
									"style" : "",
									"text" : "zl.slice 1"
								}

							}
, 							{
								"box" : 								{
									"id" : "obj-4",
									"maxclass" : "newobj",
									"numinlets" : 0,
									"numoutlets" : 1,
									"outlettype" : [ "" ],
									"patching_rect" : [ 322.267212, 20.0, 106.0, 22.0 ],
									"style" : "",
									"text" : "r reverbFeedLoad"
								}

							}
, 							{
								"box" : 								{
									"id" : "obj-1",
									"maxclass" : "newobj",
									"numinlets" : 3,
									"numoutlets" : 2,
									"outlettype" : [ "int", "int" ],
									"patching_rect" : [ 37.267212, 87.0, 59.0, 22.0 ],
									"style" : "",
									"text" : "split 1 #2"
								}

							}
, 							{
								"box" : 								{
									"id" : "obj-49",
									"maxclass" : "newobj",
									"numinlets" : 2,
									"numoutlets" : 1,
									"outlettype" : [ "" ],
									"patching_rect" : [ 457.267212, 548.099976, 48.0, 22.0 ],
									"style" : "",
									"text" : "pack i i"
								}

							}
, 							{
								"box" : 								{
									"id" : "obj-42",
									"maxclass" : "newobj",
									"numinlets" : 2,
									"numoutlets" : 1,
									"outlettype" : [ "" ],
									"patching_rect" : [ 422.267212, 516.18335, 48.0, 22.0 ],
									"style" : "",
									"text" : "pack i i"
								}

							}
, 							{
								"box" : 								{
									"id" : "obj-43",
									"maxclass" : "newobj",
									"numinlets" : 2,
									"numoutlets" : 1,
									"outlettype" : [ "" ],
									"patching_rect" : [ 387.267212, 484.266663, 48.0, 22.0 ],
									"style" : "",
									"text" : "pack i i"
								}

							}
, 							{
								"box" : 								{
									"id" : "obj-45",
									"maxclass" : "newobj",
									"numinlets" : 2,
									"numoutlets" : 1,
									"outlettype" : [ "" ],
									"patching_rect" : [ 352.267212, 452.349976, 48.0, 22.0 ],
									"style" : "",
									"text" : "pack i i"
								}

							}
, 							{
								"box" : 								{
									"id" : "obj-46",
									"maxclass" : "newobj",
									"numinlets" : 2,
									"numoutlets" : 1,
									"outlettype" : [ "" ],
									"patching_rect" : [ 317.267212, 420.433319, 49.0, 22.0 ],
									"style" : "",
									"text" : "pack i f"
								}

							}
, 							{
								"box" : 								{
									"id" : "obj-47",
									"maxclass" : "newobj",
									"numinlets" : 2,
									"numoutlets" : 1,
									"outlettype" : [ "" ],
									"patching_rect" : [ 282.267212, 388.516663, 48.0, 22.0 ],
									"style" : "",
									"text" : "pack i i"
								}

							}
, 							{
								"box" : 								{
									"id" : "obj-48",
									"maxclass" : "newobj",
									"numinlets" : 2,
									"numoutlets" : 1,
									"outlettype" : [ "" ],
									"patching_rect" : [ 247.267212, 356.599976, 48.0, 22.0 ],
									"style" : "",
									"text" : "pack i i"
								}

							}
, 							{
								"box" : 								{
									"id" : "obj-36",
									"maxclass" : "newobj",
									"numinlets" : 2,
									"numoutlets" : 1,
									"outlettype" : [ "" ],
									"patching_rect" : [ 212.267212, 324.683319, 48.0, 22.0 ],
									"style" : "",
									"text" : "pack i i"
								}

							}
, 							{
								"box" : 								{
									"id" : "obj-37",
									"maxclass" : "newobj",
									"numinlets" : 2,
									"numoutlets" : 1,
									"outlettype" : [ "" ],
									"patching_rect" : [ 177.267212, 292.766663, 49.0, 22.0 ],
									"style" : "",
									"text" : "pack i f"
								}

							}
, 							{
								"box" : 								{
									"id" : "obj-41",
									"maxclass" : "newobj",
									"numinlets" : 2,
									"numoutlets" : 1,
									"outlettype" : [ "" ],
									"patching_rect" : [ 142.267212, 260.850006, 49.0, 22.0 ],
									"style" : "",
									"text" : "pack i f"
								}

							}
, 							{
								"box" : 								{
									"id" : "obj-35",
									"maxclass" : "newobj",
									"numinlets" : 2,
									"numoutlets" : 1,
									"outlettype" : [ "" ],
									"patching_rect" : [ 107.267212, 228.933334, 49.0, 22.0 ],
									"style" : "",
									"text" : "pack i f"
								}

							}
, 							{
								"box" : 								{
									"id" : "obj-34",
									"maxclass" : "newobj",
									"numinlets" : 2,
									"numoutlets" : 1,
									"outlettype" : [ "" ],
									"patching_rect" : [ 75.767212, 197.016663, 49.0, 22.0 ],
									"style" : "",
									"text" : "pack i f"
								}

							}
, 							{
								"box" : 								{
									"id" : "obj-33",
									"maxclass" : "newobj",
									"numinlets" : 1,
									"numoutlets" : 13,
									"outlettype" : [ "int", "int", "int", "int", "int", "int", "int", "int", "int", "int", "int", "int", "int" ],
									"patching_rect" : [ 37.267212, 121.5, 258.0, 22.0 ],
									"style" : "",
									"text" : "t i i i i i i i i i i i i i"
								}

							}
, 							{
								"box" : 								{
									"id" : "obj-30",
									"maxclass" : "newobj",
									"numinlets" : 2,
									"numoutlets" : 1,
									"outlettype" : [ "" ],
									"patching_rect" : [ 37.267212, 165.100006, 49.0, 22.0 ],
									"style" : "",
									"text" : "pack i f"
								}

							}
, 							{
								"box" : 								{
									"id" : "obj-29",
									"maxclass" : "newobj",
									"numinlets" : 2,
									"numoutlets" : 2,
									"outlettype" : [ "", "" ],
									"patching_rect" : [ 37.267212, 50.100006, 57.0, 22.0 ],
									"style" : "",
									"text" : "zl.slice 1"
								}

							}
, 							{
								"box" : 								{
									"id" : "obj-26",
									"maxclass" : "newobj",
									"numinlets" : 1,
									"numoutlets" : 13,
									"outlettype" : [ "float", "float", "float", "float", "float", "int", "int", "int", "float", "int", "int", "int", "int" ],
									"patching_rect" : [ 360.267212, 121.5, 145.0, 22.0 ],
									"style" : "",
									"text" : "unpack f f f f f i i i f i i i i"
								}

							}
, 							{
								"box" : 								{
									"id" : "obj-28",
									"maxclass" : "newobj",
									"numinlets" : 0,
									"numoutlets" : 1,
									"outlettype" : [ "" ],
									"patching_rect" : [ 37.267212, 20.0, 78.0, 22.0 ],
									"style" : "",
									"text" : "r outputLoad"
								}

							}
, 							{
								"box" : 								{
									"comment" : "",
									"id" : "obj-50",
									"index" : 1,
									"maxclass" : "outlet",
									"numinlets" : 1,
									"numoutlets" : 0,
									"patching_rect" : [ 37.267212, 601.099976, 30.0, 30.0 ],
									"style" : ""
								}

							}
, 							{
								"box" : 								{
									"comment" : "",
									"id" : "obj-51",
									"index" : 2,
									"maxclass" : "outlet",
									"numinlets" : 1,
									"numoutlets" : 0,
									"patching_rect" : [ 72.267212, 601.099976, 30.0, 30.0 ],
									"style" : ""
								}

							}
, 							{
								"box" : 								{
									"comment" : "",
									"id" : "obj-52",
									"index" : 3,
									"maxclass" : "outlet",
									"numinlets" : 1,
									"numoutlets" : 0,
									"patching_rect" : [ 107.267212, 601.099976, 30.0, 30.0 ],
									"style" : ""
								}

							}
, 							{
								"box" : 								{
									"comment" : "",
									"id" : "obj-53",
									"index" : 4,
									"maxclass" : "outlet",
									"numinlets" : 1,
									"numoutlets" : 0,
									"patching_rect" : [ 142.267212, 601.099976, 30.0, 30.0 ],
									"style" : ""
								}

							}
, 							{
								"box" : 								{
									"comment" : "",
									"id" : "obj-54",
									"index" : 5,
									"maxclass" : "outlet",
									"numinlets" : 1,
									"numoutlets" : 0,
									"patching_rect" : [ 177.267212, 601.099976, 30.0, 30.0 ],
									"style" : ""
								}

							}
, 							{
								"box" : 								{
									"comment" : "",
									"id" : "obj-55",
									"index" : 6,
									"maxclass" : "outlet",
									"numinlets" : 1,
									"numoutlets" : 0,
									"patching_rect" : [ 212.267212, 601.099976, 30.0, 30.0 ],
									"style" : ""
								}

							}
, 							{
								"box" : 								{
									"comment" : "",
									"id" : "obj-56",
									"index" : 7,
									"maxclass" : "outlet",
									"numinlets" : 1,
									"numoutlets" : 0,
									"patching_rect" : [ 247.267212, 601.099976, 30.0, 30.0 ],
									"style" : ""
								}

							}
, 							{
								"box" : 								{
									"comment" : "",
									"id" : "obj-57",
									"index" : 8,
									"maxclass" : "outlet",
									"numinlets" : 1,
									"numoutlets" : 0,
									"patching_rect" : [ 282.267212, 601.099976, 30.0, 30.0 ],
									"style" : ""
								}

							}
, 							{
								"box" : 								{
									"comment" : "",
									"id" : "obj-63",
									"index" : 9,
									"maxclass" : "outlet",
									"numinlets" : 1,
									"numoutlets" : 0,
									"patching_rect" : [ 317.267212, 601.099976, 30.0, 30.0 ],
									"style" : ""
								}

							}
, 							{
								"box" : 								{
									"comment" : "",
									"id" : "obj-79",
									"index" : 10,
									"maxclass" : "outlet",
									"numinlets" : 1,
									"numoutlets" : 0,
									"patching_rect" : [ 352.267212, 601.099976, 30.0, 30.0 ],
									"style" : ""
								}

							}
, 							{
								"box" : 								{
									"comment" : "",
									"id" : "obj-80",
									"index" : 11,
									"maxclass" : "outlet",
									"numinlets" : 1,
									"numoutlets" : 0,
									"patching_rect" : [ 387.267212, 601.099976, 30.0, 30.0 ],
									"style" : ""
								}

							}
, 							{
								"box" : 								{
									"comment" : "",
									"id" : "obj-81",
									"index" : 12,
									"maxclass" : "outlet",
									"numinlets" : 1,
									"numoutlets" : 0,
									"patching_rect" : [ 422.267212, 601.099976, 30.0, 30.0 ],
									"style" : ""
								}

							}
, 							{
								"box" : 								{
									"comment" : "",
									"id" : "obj-82",
									"index" : 13,
									"maxclass" : "outlet",
									"numinlets" : 1,
									"numoutlets" : 0,
									"patching_rect" : [ 457.267212, 601.099976, 30.0, 30.0 ],
									"style" : ""
								}

							}
 ],
						"lines" : [ 							{
								"patchline" : 								{
									"destination" : [ "obj-33", 0 ],
									"source" : [ "obj-1", 0 ]
								}

							}
, 							{
								"patchline" : 								{
									"destination" : [ "obj-33", 0 ],
									"source" : [ "obj-2", 0 ]
								}

							}
, 							{
								"patchline" : 								{
									"destination" : [ "obj-30", 1 ],
									"source" : [ "obj-26", 0 ]
								}

							}
, 							{
								"patchline" : 								{
									"destination" : [ "obj-34", 1 ],
									"source" : [ "obj-26", 1 ]
								}

							}
, 							{
								"patchline" : 								{
									"destination" : [ "obj-35", 1 ],
									"source" : [ "obj-26", 2 ]
								}

							}
, 							{
								"patchline" : 								{
									"destination" : [ "obj-36", 1 ],
									"source" : [ "obj-26", 5 ]
								}

							}
, 							{
								"patchline" : 								{
									"destination" : [ "obj-37", 1 ],
									"source" : [ "obj-26", 4 ]
								}

							}
, 							{
								"patchline" : 								{
									"destination" : [ "obj-41", 1 ],
									"source" : [ "obj-26", 3 ]
								}

							}
, 							{
								"patchline" : 								{
									"destination" : [ "obj-42", 1 ],
									"source" : [ "obj-26", 11 ]
								}

							}
, 							{
								"patchline" : 								{
									"destination" : [ "obj-43", 1 ],
									"source" : [ "obj-26", 10 ]
								}

							}
, 							{
								"patchline" : 								{
									"destination" : [ "obj-45", 1 ],
									"source" : [ "obj-26", 9 ]
								}

							}
, 							{
								"patchline" : 								{
									"destination" : [ "obj-46", 1 ],
									"source" : [ "obj-26", 8 ]
								}

							}
, 							{
								"patchline" : 								{
									"destination" : [ "obj-47", 1 ],
									"source" : [ "obj-26", 7 ]
								}

							}
, 							{
								"patchline" : 								{
									"destination" : [ "obj-48", 1 ],
									"source" : [ "obj-26", 6 ]
								}

							}
, 							{
								"patchline" : 								{
									"destination" : [ "obj-49", 1 ],
									"source" : [ "obj-26", 12 ]
								}

							}
, 							{
								"patchline" : 								{
									"destination" : [ "obj-29", 0 ],
									"source" : [ "obj-28", 0 ]
								}

							}
, 							{
								"patchline" : 								{
									"destination" : [ "obj-1", 0 ],
									"source" : [ "obj-29", 0 ]
								}

							}
, 							{
								"patchline" : 								{
									"destination" : [ "obj-26", 0 ],
									"source" : [ "obj-29", 1 ]
								}

							}
, 							{
								"patchline" : 								{
									"destination" : [ "obj-2", 0 ],
									"source" : [ "obj-3", 0 ]
								}

							}
, 							{
								"patchline" : 								{
									"destination" : [ "obj-26", 0 ],
									"source" : [ "obj-3", 1 ]
								}

							}
, 							{
								"patchline" : 								{
									"destination" : [ "obj-50", 0 ],
									"source" : [ "obj-30", 0 ]
								}

							}
, 							{
								"patchline" : 								{
									"destination" : [ "obj-30", 0 ],
									"source" : [ "obj-33", 0 ]
								}

							}
, 							{
								"patchline" : 								{
									"destination" : [ "obj-34", 0 ],
									"source" : [ "obj-33", 1 ]
								}

							}
, 							{
								"patchline" : 								{
									"destination" : [ "obj-35", 0 ],
									"source" : [ "obj-33", 2 ]
								}

							}
, 							{
								"patchline" : 								{
									"destination" : [ "obj-36", 0 ],
									"source" : [ "obj-33", 5 ]
								}

							}
, 							{
								"patchline" : 								{
									"destination" : [ "obj-37", 0 ],
									"source" : [ "obj-33", 4 ]
								}

							}
, 							{
								"patchline" : 								{
									"destination" : [ "obj-41", 0 ],
									"source" : [ "obj-33", 3 ]
								}

							}
, 							{
								"patchline" : 								{
									"destination" : [ "obj-42", 0 ],
									"source" : [ "obj-33", 11 ]
								}

							}
, 							{
								"patchline" : 								{
									"destination" : [ "obj-43", 0 ],
									"source" : [ "obj-33", 10 ]
								}

							}
, 							{
								"patchline" : 								{
									"destination" : [ "obj-45", 0 ],
									"source" : [ "obj-33", 9 ]
								}

							}
, 							{
								"patchline" : 								{
									"destination" : [ "obj-46", 0 ],
									"source" : [ "obj-33", 8 ]
								}

							}
, 							{
								"patchline" : 								{
									"destination" : [ "obj-47", 0 ],
									"source" : [ "obj-33", 7 ]
								}

							}
, 							{
								"patchline" : 								{
									"destination" : [ "obj-48", 0 ],
									"source" : [ "obj-33", 6 ]
								}

							}
, 							{
								"patchline" : 								{
									"destination" : [ "obj-49", 0 ],
									"source" : [ "obj-33", 12 ]
								}

							}
, 							{
								"patchline" : 								{
									"destination" : [ "obj-51", 0 ],
									"source" : [ "obj-34", 0 ]
								}

							}
, 							{
								"patchline" : 								{
									"destination" : [ "obj-52", 0 ],
									"source" : [ "obj-35", 0 ]
								}

							}
, 							{
								"patchline" : 								{
									"destination" : [ "obj-55", 0 ],
									"source" : [ "obj-36", 0 ]
								}

							}
, 							{
								"patchline" : 								{
									"destination" : [ "obj-54", 0 ],
									"source" : [ "obj-37", 0 ]
								}

							}
, 							{
								"patchline" : 								{
									"destination" : [ "obj-3", 0 ],
									"source" : [ "obj-4", 0 ]
								}

							}
, 							{
								"patchline" : 								{
									"destination" : [ "obj-53", 0 ],
									"source" : [ "obj-41", 0 ]
								}

							}
, 							{
								"patchline" : 								{
									"destination" : [ "obj-81", 0 ],
									"source" : [ "obj-42", 0 ]
								}

							}
, 							{
								"patchline" : 								{
									"destination" : [ "obj-80", 0 ],
									"source" : [ "obj-43", 0 ]
								}

							}
, 							{
								"patchline" : 								{
									"destination" : [ "obj-79", 0 ],
									"source" : [ "obj-45", 0 ]
								}

							}
, 							{
								"patchline" : 								{
									"destination" : [ "obj-63", 0 ],
									"source" : [ "obj-46", 0 ]
								}

							}
, 							{
								"patchline" : 								{
									"destination" : [ "obj-57", 0 ],
									"source" : [ "obj-47", 0 ]
								}

							}
, 							{
								"patchline" : 								{
									"destination" : [ "obj-56", 0 ],
									"source" : [ "obj-48", 0 ]
								}

							}
, 							{
								"patchline" : 								{
									"destination" : [ "obj-82", 0 ],
									"source" : [ "obj-49", 0 ]
								}

							}
 ],
						"styles" : [ 							{
								"name" : "dark",
								"parentstyle" : "",
								"multi" : 0
							}
 ],
						"toolbarexclusions" : [ "mixerslider" ]
					}
,
					"patching_rect" : [ 1187.0, 50.899994, 164.0, 22.0 ],
					"saved_object_attributes" : 					{
						"description" : "",
						"digest" : "",
						"globalpatchername" : "",
						"style" : "dark",
						"tags" : ""
					}
,
					"style" : "",
					"text" : "p loadOutputs"
				}

			}
, 			{
				"box" : 				{
					"id" : "obj-23",
					"maxclass" : "newobj",
					"numinlets" : 13,
					"numoutlets" : 0,
					"patching_rect" : [ 889.0, 835.0, 222.555557, 22.0 ],
					"style" : "",
					"text" : "feedbackOutput #2"
				}

			}
, 			{
				"box" : 				{
					"id" : "obj-20",
					"maxclass" : "newobj",
					"numinlets" : 0,
					"numoutlets" : 26,
					"outlettype" : [ "", "", "", "", "float", "", "float", "", "float", "", "int", "", "int", "", "int", "", "", "", "", "", "", "", "", "", "", "" ],
					"patching_rect" : [ 889.5, 50.899994, 281.5, 22.0 ],
					"style" : "",
					"text" : "outputChOSC #2"
				}

			}
, 			{
				"box" : 				{
					"id" : "obj-14",
					"maxclass" : "message",
					"numinlets" : 2,
					"numoutlets" : 1,
					"outlettype" : [ "" ],
					"patching_rect" : [ 344.0, 48.0, 66.0, 22.0 ],
					"style" : "",
					"text" : "offset 0 $1"
				}

			}
, 			{
				"box" : 				{
					"id" : "obj-15",
					"maxclass" : "newobj",
					"numinlets" : 1,
					"numoutlets" : 2,
					"outlettype" : [ "", "" ],
					"patching_rect" : [ 344.0, 79.0, 69.0, 22.0 ],
					"save" : [ "#N", "thispatcher", ";", "#Q", "end", ";" ],
					"style" : "",
					"text" : "thispatcher"
				}

			}
, 			{
				"box" : 				{
					"id" : "obj-17",
					"maxclass" : "newobj",
					"numinlets" : 2,
					"numoutlets" : 1,
					"outlettype" : [ "int" ],
					"patching_rect" : [ 290.0, 79.0, 43.0, 22.0 ],
					"style" : "",
					"text" : "* -385"
				}

			}
, 			{
				"box" : 				{
					"id" : "obj-18",
					"maxclass" : "newobj",
					"numinlets" : 2,
					"numoutlets" : 1,
					"outlettype" : [ "int" ],
					"patching_rect" : [ 290.0, 48.0, 34.0, 22.0 ],
					"style" : "",
					"text" : "> #2"
				}

			}
, 			{
				"box" : 				{
					"id" : "obj-19",
					"maxclass" : "newobj",
					"numinlets" : 0,
					"numoutlets" : 1,
					"outlettype" : [ "" ],
					"patching_rect" : [ 290.0, 17.0, 91.0, 22.0 ],
					"style" : "",
					"text" : "r outputSelect2"
				}

			}
, 			{
				"box" : 				{
					"bgmode" : 0,
					"border" : 0,
					"clickthrough" : 0,
					"enablehscroll" : 0,
					"enablevscroll" : 0,
					"id" : "obj-12",
					"lockeddragscroll" : 0,
					"maxclass" : "bpatcher",
					"name" : "interfaceOutputGUI.maxpat",
					"numinlets" : 0,
					"numoutlets" : 0,
					"offset" : [ 0.0, 0.0 ],
					"patching_rect" : [ 0.0, 0.0, 270.0, 380.0 ],
					"presentation" : 1,
					"presentation_rect" : [ 0.0, 0.0, 270.0, 380.0 ],
					"viewvisibility" : 1
				}

			}
, 			{
				"box" : 				{
					"bgmode" : 0,
					"border" : 0,
					"clickthrough" : 0,
					"enablehscroll" : 0,
					"enablevscroll" : 0,
					"id" : "obj-13",
					"lockeddragscroll" : 0,
					"maxclass" : "bpatcher",
					"name" : "interfaceReverbFeedGUI.maxpat",
					"numinlets" : 0,
					"numoutlets" : 0,
					"offset" : [ 0.0, 0.0 ],
					"patching_rect" : [ 0.0, 385.0, 270.0, 380.0 ],
					"presentation" : 1,
					"presentation_rect" : [ 0.0, 385.0, 270.0, 380.0 ],
					"viewvisibility" : 1
				}

			}
, 			{
				"box" : 				{
					"id" : "obj-44",
					"maxclass" : "comment",
					"numinlets" : 1,
					"numoutlets" : 0,
					"patching_rect" : [ 424.75, 27.899994, 164.0, 20.0 ],
					"style" : "",
					"text" : "#1 total outputs+reverb feeds",
					"textcolor" : [ 1.0, 1.0, 1.0, 1.0 ]
				}

			}
, 			{
				"box" : 				{
					"id" : "obj-27",
					"maxclass" : "comment",
					"numinlets" : 1,
					"numoutlets" : 0,
					"patching_rect" : [ 424.75, 50.899994, 66.0, 20.0 ],
					"style" : "",
					"text" : "#2 outputs",
					"textcolor" : [ 1.0, 1.0, 1.0, 1.0 ]
				}

			}
, 			{
				"box" : 				{
					"id" : "obj-1",
					"maxclass" : "newobj",
					"numinlets" : 1,
					"numoutlets" : 1,
					"outlettype" : [ "" ],
					"patching_rect" : [ 589.75, 519.5, 183.0, 22.0 ],
					"style" : "",
					"text" : "s_pp2i_r_i2pp_O HFdampingRF"
				}

			}
, 			{
				"box" : 				{
					"id" : "obj-2",
					"maxclass" : "newobj",
					"numinlets" : 1,
					"numoutlets" : 1,
					"outlettype" : [ "" ],
					"patching_rect" : [ 589.75, 762.0, 227.0, 22.0 ],
					"style" : "",
					"text" : "s_pp2i_r_i2pp_O distanceAttenuationRF"
				}

			}
, 			{
				"box" : 				{
					"id" : "obj-3",
					"maxclass" : "newobj",
					"numinlets" : 1,
					"numoutlets" : 1,
					"outlettype" : [ "" ],
					"patching_rect" : [ 589.75, 649.5, 185.0, 22.0 ],
					"style" : "",
					"text" : "s_pp2i_r_i2pp_O miniLatencyRF"
				}

			}
, 			{
				"box" : 				{
					"id" : "obj-4",
					"maxclass" : "newobj",
					"numinlets" : 1,
					"numoutlets" : 1,
					"outlettype" : [ "" ],
					"patching_rect" : [ 589.75, 475.25, 166.0, 22.0 ],
					"style" : "",
					"text" : "s_pp2i_r_i2pp_O angleOffRF"
				}

			}
, 			{
				"box" : 				{
					"id" : "obj-5",
					"maxclass" : "newobj",
					"numinlets" : 1,
					"numoutlets" : 1,
					"outlettype" : [ "" ],
					"patching_rect" : [ 589.75, 429.5, 167.0, 22.0 ],
					"style" : "",
					"text" : "s_pp2i_r_i2pp_O angleOnRF"
				}

			}
, 			{
				"box" : 				{
					"id" : "obj-6",
					"maxclass" : "newobj",
					"numinlets" : 1,
					"numoutlets" : 1,
					"outlettype" : [ "" ],
					"patching_rect" : [ 589.75, 384.849976, 177.0, 22.0 ],
					"style" : "",
					"text" : "s_pp2i_r_i2pp_O orientationRF"
				}

			}
, 			{
				"box" : 				{
					"id" : "obj-7",
					"maxclass" : "newobj",
					"numinlets" : 1,
					"numoutlets" : 1,
					"outlettype" : [ "" ],
					"patching_rect" : [ 589.75, 338.899994, 124.0, 22.0 ],
					"style" : "",
					"text" : "s_pp2i_r_i2pp_O ZrF"
				}

			}
, 			{
				"box" : 				{
					"id" : "obj-8",
					"maxclass" : "newobj",
					"numinlets" : 1,
					"numoutlets" : 1,
					"outlettype" : [ "" ],
					"patching_rect" : [ 589.75, 293.150024, 124.0, 22.0 ],
					"style" : "",
					"text" : "s_pp2i_r_i2pp_O YrF"
				}

			}
, 			{
				"box" : 				{
					"id" : "obj-9",
					"maxclass" : "newobj",
					"numinlets" : 1,
					"numoutlets" : 1,
					"outlettype" : [ "" ],
					"patching_rect" : [ 589.75, 248.5, 125.0, 22.0 ],
					"style" : "",
					"text" : "s_pp2i_r_i2pp_O XrF"
				}

			}
, 			{
				"box" : 				{
					"id" : "obj-10",
					"maxclass" : "newobj",
					"numinlets" : 1,
					"numoutlets" : 1,
					"outlettype" : [ "" ],
					"patching_rect" : [ 589.75, 193.833344, 181.0, 22.0 ],
					"style" : "",
					"text" : "s_pp2i_r_i2pp_O attenuationRF"
				}

			}
, 			{
				"box" : 				{
					"id" : "obj-11",
					"maxclass" : "newobj",
					"numinlets" : 1,
					"numoutlets" : 1,
					"outlettype" : [ "" ],
					"patching_rect" : [ 589.75, 145.5, 159.0, 22.0 ],
					"style" : "",
					"text" : "s_pp2i_r_i2pp_O latencyRF"
				}

			}
, 			{
				"box" : 				{
					"id" : "obj-71",
					"maxclass" : "newobj",
					"numinlets" : 5,
					"numoutlets" : 4,
					"outlettype" : [ "", "", "", "" ],
					"patching_rect" : [ 867.0, 709.0, 308.0, 22.0 ],
					"style" : "",
					"text" : "interfaceOutputParameter_i #1 #2 outputLiveSource 1 0"
				}

			}
, 			{
				"box" : 				{
					"id" : "obj-70",
					"maxclass" : "newobj",
					"numinlets" : 5,
					"numoutlets" : 4,
					"outlettype" : [ "", "", "", "" ],
					"patching_rect" : [ 867.0, 762.0, 402.0, 22.0 ],
					"style" : "",
					"text" : "interfaceOutputParameter_i #1 #2 outputDistanceAttenuation100 100 100"
				}

			}
, 			{
				"box" : 				{
					"id" : "obj-69",
					"maxclass" : "newobj",
					"numinlets" : 5,
					"numoutlets" : 4,
					"outlettype" : [ "", "", "", "" ],
					"patching_rect" : [ 867.0, 649.5, 312.0, 22.0 ],
					"style" : "",
					"text" : "interfaceOutputParameter_i #1 #2 outputMiniLatency 1 0"
				}

			}
, 			{
				"box" : 				{
					"id" : "obj-68",
					"maxclass" : "newobj",
					"numinlets" : 5,
					"numoutlets" : 4,
					"outlettype" : [ "", "", "", "" ],
					"patching_rect" : [ 867.0, 519.5, 321.0, 22.0 ],
					"style" : "",
					"text" : "interfaceOutputParameter_f #1 #2 outputHFdamping 0. 0."
				}

			}
, 			{
				"box" : 				{
					"id" : "obj-67",
					"maxclass" : "newobj",
					"numinlets" : 5,
					"numoutlets" : 4,
					"outlettype" : [ "", "", "", "" ],
					"patching_rect" : [ 867.0, 590.150024, 281.0, 22.0 ],
					"style" : "",
					"text" : "interfaceOutputParameter_i #1 #2 outputGroup 0 6"
				}

			}
, 			{
				"box" : 				{
					"id" : "obj-66",
					"maxclass" : "newobj",
					"numinlets" : 5,
					"numoutlets" : 4,
					"outlettype" : [ "", "", "", "" ],
					"patching_rect" : [ 867.0, 475.25, 323.0, 22.0 ],
					"style" : "",
					"text" : "interfaceOutputParameter_i #1 #2 outputAngleOffDeg 90 0"
				}

			}
, 			{
				"box" : 				{
					"id" : "obj-65",
					"maxclass" : "newobj",
					"numinlets" : 5,
					"numoutlets" : 4,
					"outlettype" : [ "", "", "", "" ],
					"patching_rect" : [ 867.0, 429.5, 337.0, 22.0 ],
					"style" : "",
					"text" : "interfaceOutputParameter_i #1 #2 outputAngleOnDeg 86 180"
				}

			}
, 			{
				"box" : 				{
					"id" : "obj-64",
					"maxclass" : "newobj",
					"numinlets" : 5,
					"numoutlets" : 4,
					"outlettype" : [ "", "", "", "" ],
					"patching_rect" : [ 867.0, 384.849976, 329.0, 22.0 ],
					"style" : "",
					"text" : "interfaceOutputParameter_i #1 #2 outputOrientationDeg 0 0"
				}

			}
, 			{
				"box" : 				{
					"id" : "obj-62",
					"maxclass" : "newobj",
					"numinlets" : 5,
					"numoutlets" : 4,
					"outlettype" : [ "", "", "", "" ],
					"patching_rect" : [ 867.0, 338.899994, 273.0, 22.0 ],
					"style" : "",
					"text" : "interfaceOutputParameter_f #1 #2 outputZZ 0. 0."
				}

			}
, 			{
				"box" : 				{
					"id" : "obj-61",
					"maxclass" : "newobj",
					"numinlets" : 5,
					"numoutlets" : 4,
					"outlettype" : [ "", "", "", "" ],
					"patching_rect" : [ 867.0, 293.150024, 288.0, 22.0 ],
					"style" : "",
					"text" : "interfaceOutputParameter_f #1 #2 outputYY -0.5 15."
				}

			}
, 			{
				"box" : 				{
					"id" : "obj-60",
					"maxclass" : "newobj",
					"numinlets" : 5,
					"numoutlets" : 4,
					"outlettype" : [ "", "", "", "" ],
					"patching_rect" : [ 867.0, 248.5, 275.0, 22.0 ],
					"style" : "",
					"text" : "interfaceOutputParameter_f #1 #2 outputXX 0. 0."
				}

			}
, 			{
				"box" : 				{
					"id" : "obj-59",
					"maxclass" : "newobj",
					"numinlets" : 5,
					"numoutlets" : 4,
					"outlettype" : [ "", "", "", "" ],
					"patching_rect" : [ 867.0, 193.833344, 333.0, 22.0 ],
					"style" : "",
					"text" : "interfaceOutputParameter_f #1 #2 outputAttenuationDB 0. 0."
				}

			}
, 			{
				"box" : 				{
					"id" : "obj-58",
					"maxclass" : "newobj",
					"numinlets" : 5,
					"numoutlets" : 4,
					"outlettype" : [ "", "", "", "" ],
					"patching_rect" : [ 867.0, 145.5, 301.0, 22.0 ],
					"style" : "",
					"text" : "interfaceOutputParameter_f #1 #2 outputLatency 0. 0."
				}

			}
, 			{
				"box" : 				{
					"id" : "obj-78",
					"maxclass" : "newobj",
					"numinlets" : 1,
					"numoutlets" : 1,
					"outlettype" : [ "" ],
					"patching_rect" : [ 319.75, 590.150024, 172.0, 22.0 ],
					"style" : "",
					"text" : "s_pp2i_r_i2pp_O groupOutput"
				}

			}
, 			{
				"box" : 				{
					"id" : "obj-77",
					"maxclass" : "newobj",
					"numinlets" : 1,
					"numoutlets" : 1,
					"outlettype" : [ "" ],
					"patching_rect" : [ 319.75, 519.5, 203.0, 22.0 ],
					"style" : "",
					"text" : "s_pp2i_r_i2pp_O HFdampingOutput"
				}

			}
, 			{
				"box" : 				{
					"id" : "obj-74",
					"maxclass" : "newobj",
					"numinlets" : 1,
					"numoutlets" : 1,
					"outlettype" : [ "" ],
					"patching_rect" : [ 319.75, 709.0, 197.0, 22.0 ],
					"style" : "",
					"text" : "s_pp2i_r_i2pp_O liveSourceOutput"
				}

			}
, 			{
				"box" : 				{
					"id" : "obj-75",
					"maxclass" : "newobj",
					"numinlets" : 1,
					"numoutlets" : 1,
					"outlettype" : [ "" ],
					"patching_rect" : [ 319.75, 762.0, 247.0, 22.0 ],
					"style" : "",
					"text" : "s_pp2i_r_i2pp_O distanceAttenuationOutput"
				}

			}
, 			{
				"box" : 				{
					"id" : "obj-76",
					"maxclass" : "newobj",
					"numinlets" : 1,
					"numoutlets" : 1,
					"outlettype" : [ "" ],
					"patching_rect" : [ 319.75, 649.5, 205.0, 22.0 ],
					"style" : "",
					"text" : "s_pp2i_r_i2pp_O miniLatencyOutput"
				}

			}
, 			{
				"box" : 				{
					"id" : "obj-40",
					"maxclass" : "newobj",
					"numinlets" : 1,
					"numoutlets" : 1,
					"outlettype" : [ "" ],
					"patching_rect" : [ 319.75, 475.25, 186.0, 22.0 ],
					"style" : "",
					"text" : "s_pp2i_r_i2pp_O angleOffOutput"
				}

			}
, 			{
				"box" : 				{
					"id" : "obj-72",
					"maxclass" : "newobj",
					"numinlets" : 1,
					"numoutlets" : 1,
					"outlettype" : [ "" ],
					"patching_rect" : [ 319.75, 429.5, 187.0, 22.0 ],
					"style" : "",
					"text" : "s_pp2i_r_i2pp_O angleOnOutput"
				}

			}
, 			{
				"box" : 				{
					"id" : "obj-73",
					"maxclass" : "newobj",
					"numinlets" : 1,
					"numoutlets" : 1,
					"outlettype" : [ "" ],
					"patching_rect" : [ 319.75, 384.849976, 197.0, 22.0 ],
					"style" : "",
					"text" : "s_pp2i_r_i2pp_O orientationOutput"
				}

			}
, 			{
				"box" : 				{
					"id" : "obj-39",
					"maxclass" : "newobj",
					"numinlets" : 1,
					"numoutlets" : 1,
					"outlettype" : [ "" ],
					"patching_rect" : [ 319.75, 338.899994, 146.0, 22.0 ],
					"style" : "",
					"text" : "s_pp2i_r_i2pp_O Zoutput"
				}

			}
, 			{
				"box" : 				{
					"id" : "obj-38",
					"maxclass" : "newobj",
					"numinlets" : 1,
					"numoutlets" : 1,
					"outlettype" : [ "" ],
					"patching_rect" : [ 319.75, 293.150024, 145.0, 22.0 ],
					"style" : "",
					"text" : "s_pp2i_r_i2pp_O Youtput"
				}

			}
, 			{
				"box" : 				{
					"id" : "obj-32",
					"maxclass" : "newobj",
					"numinlets" : 1,
					"numoutlets" : 1,
					"outlettype" : [ "" ],
					"patching_rect" : [ 319.75, 248.5, 147.0, 22.0 ],
					"style" : "",
					"text" : "s_pp2i_r_i2pp_O Xoutput"
				}

			}
, 			{
				"box" : 				{
					"id" : "obj-31",
					"maxclass" : "newobj",
					"numinlets" : 1,
					"numoutlets" : 1,
					"outlettype" : [ "" ],
					"patching_rect" : [ 319.75, 193.833344, 201.0, 22.0 ],
					"style" : "",
					"text" : "s_pp2i_r_i2pp_O attenuationOutput"
				}

			}
, 			{
				"box" : 				{
					"id" : "obj-16",
					"maxclass" : "newobj",
					"numinlets" : 1,
					"numoutlets" : 1,
					"outlettype" : [ "" ],
					"patching_rect" : [ 319.75, 145.5, 179.0, 22.0 ],
					"style" : "",
					"text" : "s_pp2i_r_i2pp_O latencyOutput"
				}

			}
 ],
		"lines" : [ 			{
				"patchline" : 				{
					"color" : [ 0.403922, 0.109804, 0.701961, 0.309804 ],
					"destination" : [ "obj-68", 0 ],
					"source" : [ "obj-1", 0 ]
				}

			}
, 			{
				"patchline" : 				{
					"color" : [ 0.403922, 0.109804, 0.701961, 0.309804 ],
					"destination" : [ "obj-59", 0 ],
					"source" : [ "obj-10", 0 ]
				}

			}
, 			{
				"patchline" : 				{
					"color" : [ 0.403922, 0.109804, 0.701961, 0.309804 ],
					"destination" : [ "obj-58", 0 ],
					"source" : [ "obj-11", 0 ]
				}

			}
, 			{
				"patchline" : 				{
					"destination" : [ "obj-84", 0 ],
					"source" : [ "obj-132", 0 ]
				}

			}
, 			{
				"patchline" : 				{
					"destination" : [ "obj-15", 0 ],
					"source" : [ "obj-14", 0 ]
				}

			}
, 			{
				"patchline" : 				{
					"color" : [ 0.403922, 0.109804, 0.701961, 0.309804 ],
					"destination" : [ "obj-58", 0 ],
					"source" : [ "obj-16", 0 ]
				}

			}
, 			{
				"patchline" : 				{
					"destination" : [ "obj-14", 0 ],
					"source" : [ "obj-17", 0 ]
				}

			}
, 			{
				"patchline" : 				{
					"destination" : [ "obj-17", 0 ],
					"source" : [ "obj-18", 0 ]
				}

			}
, 			{
				"patchline" : 				{
					"destination" : [ "obj-18", 0 ],
					"source" : [ "obj-19", 0 ]
				}

			}
, 			{
				"patchline" : 				{
					"color" : [ 0.403922, 0.109804, 0.701961, 0.309804 ],
					"destination" : [ "obj-70", 0 ],
					"source" : [ "obj-2", 0 ]
				}

			}
, 			{
				"patchline" : 				{
					"color" : [ 0.364706, 1.0, 0.0, 0.301961 ],
					"destination" : [ "obj-58", 2 ],
					"source" : [ "obj-20", 1 ]
				}

			}
, 			{
				"patchline" : 				{
					"color" : [ 0.811765, 0.372549, 0.372549, 0.501961 ],
					"destination" : [ "obj-58", 1 ],
					"source" : [ "obj-20", 0 ]
				}

			}
, 			{
				"patchline" : 				{
					"color" : [ 0.364706, 1.0, 0.0, 0.301961 ],
					"destination" : [ "obj-59", 2 ],
					"source" : [ "obj-20", 3 ]
				}

			}
, 			{
				"patchline" : 				{
					"color" : [ 0.811765, 0.372549, 0.372549, 0.501961 ],
					"destination" : [ "obj-59", 1 ],
					"source" : [ "obj-20", 2 ]
				}

			}
, 			{
				"patchline" : 				{
					"color" : [ 0.364706, 1.0, 0.0, 0.301961 ],
					"destination" : [ "obj-60", 2 ],
					"source" : [ "obj-20", 5 ]
				}

			}
, 			{
				"patchline" : 				{
					"color" : [ 0.811765, 0.372549, 0.372549, 0.501961 ],
					"destination" : [ "obj-60", 1 ],
					"source" : [ "obj-20", 4 ]
				}

			}
, 			{
				"patchline" : 				{
					"color" : [ 0.364706, 1.0, 0.0, 0.301961 ],
					"destination" : [ "obj-61", 2 ],
					"source" : [ "obj-20", 7 ]
				}

			}
, 			{
				"patchline" : 				{
					"color" : [ 0.811765, 0.372549, 0.372549, 0.501961 ],
					"destination" : [ "obj-61", 1 ],
					"source" : [ "obj-20", 6 ]
				}

			}
, 			{
				"patchline" : 				{
					"color" : [ 0.364706, 1.0, 0.0, 0.301961 ],
					"destination" : [ "obj-62", 2 ],
					"source" : [ "obj-20", 9 ]
				}

			}
, 			{
				"patchline" : 				{
					"color" : [ 0.811765, 0.372549, 0.372549, 0.501961 ],
					"destination" : [ "obj-62", 1 ],
					"source" : [ "obj-20", 8 ]
				}

			}
, 			{
				"patchline" : 				{
					"color" : [ 0.364706, 1.0, 0.0, 0.301961 ],
					"destination" : [ "obj-64", 2 ],
					"source" : [ "obj-20", 11 ]
				}

			}
, 			{
				"patchline" : 				{
					"color" : [ 0.811765, 0.372549, 0.372549, 0.501961 ],
					"destination" : [ "obj-64", 1 ],
					"source" : [ "obj-20", 10 ]
				}

			}
, 			{
				"patchline" : 				{
					"color" : [ 0.364706, 1.0, 0.0, 0.301961 ],
					"destination" : [ "obj-65", 2 ],
					"source" : [ "obj-20", 13 ]
				}

			}
, 			{
				"patchline" : 				{
					"color" : [ 0.811765, 0.372549, 0.372549, 0.501961 ],
					"destination" : [ "obj-65", 1 ],
					"source" : [ "obj-20", 12 ]
				}

			}
, 			{
				"patchline" : 				{
					"color" : [ 0.364706, 1.0, 0.0, 0.301961 ],
					"destination" : [ "obj-66", 2 ],
					"source" : [ "obj-20", 15 ]
				}

			}
, 			{
				"patchline" : 				{
					"color" : [ 0.811765, 0.372549, 0.372549, 0.501961 ],
					"destination" : [ "obj-66", 1 ],
					"source" : [ "obj-20", 14 ]
				}

			}
, 			{
				"patchline" : 				{
					"color" : [ 0.364706, 1.0, 0.0, 0.301961 ],
					"destination" : [ "obj-67", 2 ],
					"source" : [ "obj-20", 19 ]
				}

			}
, 			{
				"patchline" : 				{
					"color" : [ 0.811765, 0.372549, 0.372549, 0.501961 ],
					"destination" : [ "obj-67", 1 ],
					"source" : [ "obj-20", 18 ]
				}

			}
, 			{
				"patchline" : 				{
					"color" : [ 0.364706, 1.0, 0.0, 0.301961 ],
					"destination" : [ "obj-68", 2 ],
					"source" : [ "obj-20", 17 ]
				}

			}
, 			{
				"patchline" : 				{
					"color" : [ 0.811765, 0.372549, 0.372549, 0.501961 ],
					"destination" : [ "obj-68", 1 ],
					"source" : [ "obj-20", 16 ]
				}

			}
, 			{
				"patchline" : 				{
					"color" : [ 0.364706, 1.0, 0.0, 0.301961 ],
					"destination" : [ "obj-69", 2 ],
					"source" : [ "obj-20", 21 ]
				}

			}
, 			{
				"patchline" : 				{
					"color" : [ 0.811765, 0.372549, 0.372549, 0.501961 ],
					"destination" : [ "obj-69", 1 ],
					"source" : [ "obj-20", 20 ]
				}

			}
, 			{
				"patchline" : 				{
					"color" : [ 0.364706, 1.0, 0.0, 0.301961 ],
					"destination" : [ "obj-70", 2 ],
					"source" : [ "obj-20", 25 ]
				}

			}
, 			{
				"patchline" : 				{
					"color" : [ 0.811765, 0.372549, 0.372549, 0.501961 ],
					"destination" : [ "obj-70", 1 ],
					"source" : [ "obj-20", 24 ]
				}

			}
, 			{
				"patchline" : 				{
					"color" : [ 0.364706, 1.0, 0.0, 0.301961 ],
					"destination" : [ "obj-71", 2 ],
					"source" : [ "obj-20", 23 ]
				}

			}
, 			{
				"patchline" : 				{
					"color" : [ 0.811765, 0.372549, 0.372549, 0.501961 ],
					"destination" : [ "obj-71", 1 ],
					"source" : [ "obj-20", 22 ]
				}

			}
, 			{
				"patchline" : 				{
					"color" : [ 0.403922, 0.109804, 0.701961, 0.309804 ],
					"destination" : [ "obj-69", 0 ],
					"source" : [ "obj-3", 0 ]
				}

			}
, 			{
				"patchline" : 				{
					"color" : [ 0.403922, 0.109804, 0.701961, 0.309804 ],
					"destination" : [ "obj-59", 0 ],
					"source" : [ "obj-31", 0 ]
				}

			}
, 			{
				"patchline" : 				{
					"color" : [ 0.403922, 0.109804, 0.701961, 0.309804 ],
					"destination" : [ "obj-60", 0 ],
					"source" : [ "obj-32", 0 ]
				}

			}
, 			{
				"patchline" : 				{
					"color" : [ 0.403922, 0.109804, 0.701961, 0.309804 ],
					"destination" : [ "obj-61", 0 ],
					"source" : [ "obj-38", 0 ]
				}

			}
, 			{
				"patchline" : 				{
					"color" : [ 0.403922, 0.109804, 0.701961, 0.309804 ],
					"destination" : [ "obj-62", 0 ],
					"source" : [ "obj-39", 0 ]
				}

			}
, 			{
				"patchline" : 				{
					"color" : [ 0.403922, 0.109804, 0.701961, 0.309804 ],
					"destination" : [ "obj-66", 0 ],
					"source" : [ "obj-4", 0 ]
				}

			}
, 			{
				"patchline" : 				{
					"color" : [ 0.403922, 0.109804, 0.701961, 0.309804 ],
					"destination" : [ "obj-66", 0 ],
					"source" : [ "obj-40", 0 ]
				}

			}
, 			{
				"patchline" : 				{
					"color" : [ 0.403922, 0.109804, 0.701961, 0.309804 ],
					"destination" : [ "obj-65", 0 ],
					"source" : [ "obj-5", 0 ]
				}

			}
, 			{
				"patchline" : 				{
					"color" : [ 0.929412, 0.360784, 0.866667, 0.301961 ],
					"destination" : [ "obj-107", 0 ],
					"source" : [ "obj-58", 3 ]
				}

			}
, 			{
				"patchline" : 				{
					"color" : [ 0.403922, 0.109804, 0.701961, 0.309804 ],
					"destination" : [ "obj-11", 0 ],
					"source" : [ "obj-58", 1 ]
				}

			}
, 			{
				"patchline" : 				{
					"color" : [ 0.403922, 0.109804, 0.701961, 0.309804 ],
					"destination" : [ "obj-16", 0 ],
					"source" : [ "obj-58", 0 ]
				}

			}
, 			{
				"patchline" : 				{
					"color" : [ 0.082353, 0.431373, 0.411765, 0.45098 ],
					"destination" : [ "obj-23", 0 ],
					"source" : [ "obj-58", 2 ]
				}

			}
, 			{
				"patchline" : 				{
					"color" : [ 0.403922, 0.109804, 0.701961, 0.309804 ],
					"destination" : [ "obj-10", 0 ],
					"source" : [ "obj-59", 1 ]
				}

			}
, 			{
				"patchline" : 				{
					"color" : [ 0.929412, 0.360784, 0.866667, 0.301961 ],
					"destination" : [ "obj-107", 1 ],
					"source" : [ "obj-59", 3 ]
				}

			}
, 			{
				"patchline" : 				{
					"color" : [ 0.082353, 0.431373, 0.411765, 0.45098 ],
					"destination" : [ "obj-23", 1 ],
					"source" : [ "obj-59", 2 ]
				}

			}
, 			{
				"patchline" : 				{
					"color" : [ 0.403922, 0.109804, 0.701961, 0.309804 ],
					"destination" : [ "obj-31", 0 ],
					"source" : [ "obj-59", 0 ]
				}

			}
, 			{
				"patchline" : 				{
					"color" : [ 0.403922, 0.109804, 0.701961, 0.309804 ],
					"destination" : [ "obj-64", 0 ],
					"source" : [ "obj-6", 0 ]
				}

			}
, 			{
				"patchline" : 				{
					"color" : [ 0.929412, 0.360784, 0.866667, 0.301961 ],
					"destination" : [ "obj-107", 2 ],
					"source" : [ "obj-60", 3 ]
				}

			}
, 			{
				"patchline" : 				{
					"color" : [ 0.082353, 0.431373, 0.411765, 0.45098 ],
					"destination" : [ "obj-23", 2 ],
					"source" : [ "obj-60", 2 ]
				}

			}
, 			{
				"patchline" : 				{
					"color" : [ 0.403922, 0.109804, 0.701961, 0.309804 ],
					"destination" : [ "obj-32", 0 ],
					"source" : [ "obj-60", 0 ]
				}

			}
, 			{
				"patchline" : 				{
					"color" : [ 0.403922, 0.109804, 0.701961, 0.309804 ],
					"destination" : [ "obj-9", 0 ],
					"source" : [ "obj-60", 1 ]
				}

			}
, 			{
				"patchline" : 				{
					"color" : [ 0.929412, 0.360784, 0.866667, 0.301961 ],
					"destination" : [ "obj-107", 3 ],
					"source" : [ "obj-61", 3 ]
				}

			}
, 			{
				"patchline" : 				{
					"color" : [ 0.082353, 0.431373, 0.411765, 0.45098 ],
					"destination" : [ "obj-23", 3 ],
					"source" : [ "obj-61", 2 ]
				}

			}
, 			{
				"patchline" : 				{
					"color" : [ 0.403922, 0.109804, 0.701961, 0.309804 ],
					"destination" : [ "obj-38", 0 ],
					"source" : [ "obj-61", 0 ]
				}

			}
, 			{
				"patchline" : 				{
					"color" : [ 0.403922, 0.109804, 0.701961, 0.309804 ],
					"destination" : [ "obj-8", 0 ],
					"source" : [ "obj-61", 1 ]
				}

			}
, 			{
				"patchline" : 				{
					"color" : [ 0.929412, 0.360784, 0.866667, 0.301961 ],
					"destination" : [ "obj-107", 4 ],
					"source" : [ "obj-62", 3 ]
				}

			}
, 			{
				"patchline" : 				{
					"color" : [ 0.082353, 0.431373, 0.411765, 0.45098 ],
					"destination" : [ "obj-23", 4 ],
					"source" : [ "obj-62", 2 ]
				}

			}
, 			{
				"patchline" : 				{
					"color" : [ 0.403922, 0.109804, 0.701961, 0.309804 ],
					"destination" : [ "obj-39", 0 ],
					"source" : [ "obj-62", 0 ]
				}

			}
, 			{
				"patchline" : 				{
					"color" : [ 0.403922, 0.109804, 0.701961, 0.309804 ],
					"destination" : [ "obj-7", 0 ],
					"source" : [ "obj-62", 1 ]
				}

			}
, 			{
				"patchline" : 				{
					"color" : [ 0.929412, 0.360784, 0.866667, 0.301961 ],
					"destination" : [ "obj-107", 5 ],
					"source" : [ "obj-64", 3 ]
				}

			}
, 			{
				"patchline" : 				{
					"color" : [ 0.082353, 0.431373, 0.411765, 0.45098 ],
					"destination" : [ "obj-23", 5 ],
					"source" : [ "obj-64", 2 ]
				}

			}
, 			{
				"patchline" : 				{
					"color" : [ 0.403922, 0.109804, 0.701961, 0.309804 ],
					"destination" : [ "obj-6", 0 ],
					"source" : [ "obj-64", 1 ]
				}

			}
, 			{
				"patchline" : 				{
					"color" : [ 0.403922, 0.109804, 0.701961, 0.309804 ],
					"destination" : [ "obj-73", 0 ],
					"source" : [ "obj-64", 0 ]
				}

			}
, 			{
				"patchline" : 				{
					"color" : [ 0.929412, 0.360784, 0.866667, 0.301961 ],
					"destination" : [ "obj-107", 6 ],
					"source" : [ "obj-65", 3 ]
				}

			}
, 			{
				"patchline" : 				{
					"color" : [ 0.082353, 0.431373, 0.411765, 0.45098 ],
					"destination" : [ "obj-23", 6 ],
					"source" : [ "obj-65", 2 ]
				}

			}
, 			{
				"patchline" : 				{
					"color" : [ 0.403922, 0.109804, 0.701961, 0.309804 ],
					"destination" : [ "obj-5", 0 ],
					"source" : [ "obj-65", 1 ]
				}

			}
, 			{
				"patchline" : 				{
					"color" : [ 0.403922, 0.109804, 0.701961, 0.309804 ],
					"destination" : [ "obj-72", 0 ],
					"source" : [ "obj-65", 0 ]
				}

			}
, 			{
				"patchline" : 				{
					"color" : [ 0.929412, 0.360784, 0.866667, 0.301961 ],
					"destination" : [ "obj-107", 7 ],
					"source" : [ "obj-66", 3 ]
				}

			}
, 			{
				"patchline" : 				{
					"color" : [ 0.082353, 0.431373, 0.411765, 0.45098 ],
					"destination" : [ "obj-23", 7 ],
					"source" : [ "obj-66", 2 ]
				}

			}
, 			{
				"patchline" : 				{
					"color" : [ 0.403922, 0.109804, 0.701961, 0.309804 ],
					"destination" : [ "obj-4", 0 ],
					"source" : [ "obj-66", 1 ]
				}

			}
, 			{
				"patchline" : 				{
					"color" : [ 0.403922, 0.109804, 0.701961, 0.309804 ],
					"destination" : [ "obj-40", 0 ],
					"source" : [ "obj-66", 0 ]
				}

			}
, 			{
				"patchline" : 				{
					"color" : [ 0.929412, 0.360784, 0.866667, 0.301961 ],
					"destination" : [ "obj-107", 9 ],
					"source" : [ "obj-67", 3 ]
				}

			}
, 			{
				"patchline" : 				{
					"color" : [ 0.082353, 0.431373, 0.411765, 0.45098 ],
					"destination" : [ "obj-23", 9 ],
					"source" : [ "obj-67", 2 ]
				}

			}
, 			{
				"patchline" : 				{
					"color" : [ 0.403922, 0.109804, 0.701961, 0.309804 ],
					"destination" : [ "obj-78", 0 ],
					"source" : [ "obj-67", 0 ]
				}

			}
, 			{
				"patchline" : 				{
					"color" : [ 0.403922, 0.109804, 0.701961, 0.309804 ],
					"destination" : [ "obj-1", 0 ],
					"source" : [ "obj-68", 1 ]
				}

			}
, 			{
				"patchline" : 				{
					"color" : [ 0.929412, 0.360784, 0.866667, 0.301961 ],
					"destination" : [ "obj-107", 8 ],
					"source" : [ "obj-68", 3 ]
				}

			}
, 			{
				"patchline" : 				{
					"color" : [ 0.082353, 0.431373, 0.411765, 0.45098 ],
					"destination" : [ "obj-23", 8 ],
					"source" : [ "obj-68", 2 ]
				}

			}
, 			{
				"patchline" : 				{
					"color" : [ 0.403922, 0.109804, 0.701961, 0.309804 ],
					"destination" : [ "obj-77", 0 ],
					"source" : [ "obj-68", 0 ]
				}

			}
, 			{
				"patchline" : 				{
					"color" : [ 0.929412, 0.360784, 0.866667, 0.301961 ],
					"destination" : [ "obj-107", 10 ],
					"source" : [ "obj-69", 3 ]
				}

			}
, 			{
				"patchline" : 				{
					"color" : [ 0.082353, 0.431373, 0.411765, 0.45098 ],
					"destination" : [ "obj-23", 10 ],
					"source" : [ "obj-69", 2 ]
				}

			}
, 			{
				"patchline" : 				{
					"color" : [ 0.403922, 0.109804, 0.701961, 0.309804 ],
					"destination" : [ "obj-3", 0 ],
					"source" : [ "obj-69", 1 ]
				}

			}
, 			{
				"patchline" : 				{
					"color" : [ 0.403922, 0.109804, 0.701961, 0.309804 ],
					"destination" : [ "obj-76", 0 ],
					"source" : [ "obj-69", 0 ]
				}

			}
, 			{
				"patchline" : 				{
					"color" : [ 0.403922, 0.109804, 0.701961, 0.309804 ],
					"destination" : [ "obj-62", 0 ],
					"source" : [ "obj-7", 0 ]
				}

			}
, 			{
				"patchline" : 				{
					"color" : [ 0.929412, 0.360784, 0.866667, 0.301961 ],
					"destination" : [ "obj-107", 12 ],
					"source" : [ "obj-70", 3 ]
				}

			}
, 			{
				"patchline" : 				{
					"color" : [ 0.403922, 0.109804, 0.701961, 0.309804 ],
					"destination" : [ "obj-2", 0 ],
					"source" : [ "obj-70", 1 ]
				}

			}
, 			{
				"patchline" : 				{
					"color" : [ 0.082353, 0.431373, 0.411765, 0.45098 ],
					"destination" : [ "obj-23", 12 ],
					"source" : [ "obj-70", 2 ]
				}

			}
, 			{
				"patchline" : 				{
					"color" : [ 0.403922, 0.109804, 0.701961, 0.309804 ],
					"destination" : [ "obj-75", 0 ],
					"source" : [ "obj-70", 0 ]
				}

			}
, 			{
				"patchline" : 				{
					"color" : [ 0.929412, 0.360784, 0.866667, 0.301961 ],
					"destination" : [ "obj-107", 11 ],
					"source" : [ "obj-71", 3 ]
				}

			}
, 			{
				"patchline" : 				{
					"color" : [ 0.082353, 0.431373, 0.411765, 0.45098 ],
					"destination" : [ "obj-23", 11 ],
					"source" : [ "obj-71", 2 ]
				}

			}
, 			{
				"patchline" : 				{
					"color" : [ 0.403922, 0.109804, 0.701961, 0.309804 ],
					"destination" : [ "obj-74", 0 ],
					"source" : [ "obj-71", 0 ]
				}

			}
, 			{
				"patchline" : 				{
					"color" : [ 0.403922, 0.109804, 0.701961, 0.309804 ],
					"destination" : [ "obj-65", 0 ],
					"source" : [ "obj-72", 0 ]
				}

			}
, 			{
				"patchline" : 				{
					"color" : [ 0.403922, 0.109804, 0.701961, 0.309804 ],
					"destination" : [ "obj-64", 0 ],
					"source" : [ "obj-73", 0 ]
				}

			}
, 			{
				"patchline" : 				{
					"color" : [ 0.403922, 0.109804, 0.701961, 0.309804 ],
					"destination" : [ "obj-71", 0 ],
					"source" : [ "obj-74", 0 ]
				}

			}
, 			{
				"patchline" : 				{
					"color" : [ 0.403922, 0.109804, 0.701961, 0.309804 ],
					"destination" : [ "obj-70", 0 ],
					"source" : [ "obj-75", 0 ]
				}

			}
, 			{
				"patchline" : 				{
					"color" : [ 0.403922, 0.109804, 0.701961, 0.309804 ],
					"destination" : [ "obj-69", 0 ],
					"source" : [ "obj-76", 0 ]
				}

			}
, 			{
				"patchline" : 				{
					"color" : [ 0.403922, 0.109804, 0.701961, 0.309804 ],
					"destination" : [ "obj-68", 0 ],
					"source" : [ "obj-77", 0 ]
				}

			}
, 			{
				"patchline" : 				{
					"color" : [ 0.403922, 0.109804, 0.701961, 0.309804 ],
					"destination" : [ "obj-67", 0 ],
					"source" : [ "obj-78", 0 ]
				}

			}
, 			{
				"patchline" : 				{
					"color" : [ 0.403922, 0.109804, 0.701961, 0.309804 ],
					"destination" : [ "obj-61", 0 ],
					"source" : [ "obj-8", 0 ]
				}

			}
, 			{
				"patchline" : 				{
					"color" : [ 0.843137, 0.741176, 0.431373, 0.4 ],
					"destination" : [ "obj-58", 3 ],
					"source" : [ "obj-83", 0 ]
				}

			}
, 			{
				"patchline" : 				{
					"color" : [ 0.843137, 0.741176, 0.431373, 0.4 ],
					"destination" : [ "obj-59", 3 ],
					"source" : [ "obj-83", 1 ]
				}

			}
, 			{
				"patchline" : 				{
					"color" : [ 0.843137, 0.741176, 0.431373, 0.4 ],
					"destination" : [ "obj-60", 3 ],
					"source" : [ "obj-83", 2 ]
				}

			}
, 			{
				"patchline" : 				{
					"color" : [ 0.843137, 0.741176, 0.431373, 0.4 ],
					"destination" : [ "obj-61", 3 ],
					"source" : [ "obj-83", 3 ]
				}

			}
, 			{
				"patchline" : 				{
					"color" : [ 0.843137, 0.741176, 0.431373, 0.4 ],
					"destination" : [ "obj-62", 3 ],
					"source" : [ "obj-83", 4 ]
				}

			}
, 			{
				"patchline" : 				{
					"color" : [ 0.843137, 0.741176, 0.431373, 0.4 ],
					"destination" : [ "obj-64", 3 ],
					"source" : [ "obj-83", 5 ]
				}

			}
, 			{
				"patchline" : 				{
					"color" : [ 0.843137, 0.741176, 0.431373, 0.4 ],
					"destination" : [ "obj-65", 3 ],
					"source" : [ "obj-83", 6 ]
				}

			}
, 			{
				"patchline" : 				{
					"color" : [ 0.843137, 0.741176, 0.431373, 0.4 ],
					"destination" : [ "obj-66", 3 ],
					"source" : [ "obj-83", 7 ]
				}

			}
, 			{
				"patchline" : 				{
					"color" : [ 0.843137, 0.741176, 0.431373, 0.4 ],
					"destination" : [ "obj-67", 3 ],
					"source" : [ "obj-83", 9 ]
				}

			}
, 			{
				"patchline" : 				{
					"color" : [ 0.843137, 0.741176, 0.431373, 0.4 ],
					"destination" : [ "obj-68", 3 ],
					"source" : [ "obj-83", 8 ]
				}

			}
, 			{
				"patchline" : 				{
					"color" : [ 0.843137, 0.741176, 0.431373, 0.4 ],
					"destination" : [ "obj-69", 3 ],
					"source" : [ "obj-83", 10 ]
				}

			}
, 			{
				"patchline" : 				{
					"color" : [ 0.843137, 0.741176, 0.431373, 0.4 ],
					"destination" : [ "obj-70", 3 ],
					"source" : [ "obj-83", 12 ]
				}

			}
, 			{
				"patchline" : 				{
					"color" : [ 0.843137, 0.741176, 0.431373, 0.4 ],
					"destination" : [ "obj-71", 3 ],
					"source" : [ "obj-83", 11 ]
				}

			}
, 			{
				"patchline" : 				{
					"color" : [ 0.929412, 0.360784, 0.866667, 0.301961 ],
					"destination" : [ "obj-107", 13 ],
					"source" : [ "obj-84", 0 ]
				}

			}
, 			{
				"patchline" : 				{
					"color" : [ 0.929412, 0.360784, 0.866667, 0.301961 ],
					"destination" : [ "obj-58", 4 ],
					"source" : [ "obj-84", 1 ]
				}

			}
, 			{
				"patchline" : 				{
					"color" : [ 0.929412, 0.360784, 0.866667, 0.301961 ],
					"destination" : [ "obj-59", 4 ],
					"source" : [ "obj-84", 2 ]
				}

			}
, 			{
				"patchline" : 				{
					"color" : [ 0.929412, 0.360784, 0.866667, 0.301961 ],
					"destination" : [ "obj-60", 4 ],
					"source" : [ "obj-84", 3 ]
				}

			}
, 			{
				"patchline" : 				{
					"color" : [ 0.929412, 0.360784, 0.866667, 0.301961 ],
					"destination" : [ "obj-61", 4 ],
					"source" : [ "obj-84", 4 ]
				}

			}
, 			{
				"patchline" : 				{
					"color" : [ 0.929412, 0.360784, 0.866667, 0.301961 ],
					"destination" : [ "obj-62", 4 ],
					"source" : [ "obj-84", 5 ]
				}

			}
, 			{
				"patchline" : 				{
					"color" : [ 0.929412, 0.360784, 0.866667, 0.301961 ],
					"destination" : [ "obj-64", 4 ],
					"source" : [ "obj-84", 6 ]
				}

			}
, 			{
				"patchline" : 				{
					"color" : [ 0.929412, 0.360784, 0.866667, 0.301961 ],
					"destination" : [ "obj-65", 4 ],
					"source" : [ "obj-84", 7 ]
				}

			}
, 			{
				"patchline" : 				{
					"color" : [ 0.929412, 0.360784, 0.866667, 0.301961 ],
					"destination" : [ "obj-66", 4 ],
					"source" : [ "obj-84", 8 ]
				}

			}
, 			{
				"patchline" : 				{
					"color" : [ 0.929412, 0.360784, 0.866667, 0.301961 ],
					"destination" : [ "obj-67", 4 ],
					"source" : [ "obj-84", 10 ]
				}

			}
, 			{
				"patchline" : 				{
					"color" : [ 0.929412, 0.360784, 0.866667, 0.301961 ],
					"destination" : [ "obj-68", 4 ],
					"source" : [ "obj-84", 9 ]
				}

			}
, 			{
				"patchline" : 				{
					"color" : [ 0.929412, 0.360784, 0.866667, 0.301961 ],
					"destination" : [ "obj-69", 4 ],
					"source" : [ "obj-84", 11 ]
				}

			}
, 			{
				"patchline" : 				{
					"color" : [ 0.929412, 0.360784, 0.866667, 0.301961 ],
					"destination" : [ "obj-70", 4 ],
					"source" : [ "obj-84", 13 ]
				}

			}
, 			{
				"patchline" : 				{
					"color" : [ 0.929412, 0.360784, 0.866667, 0.301961 ],
					"destination" : [ "obj-71", 4 ],
					"source" : [ "obj-84", 12 ]
				}

			}
, 			{
				"patchline" : 				{
					"color" : [ 0.403922, 0.109804, 0.701961, 0.309804 ],
					"destination" : [ "obj-60", 0 ],
					"source" : [ "obj-9", 0 ]
				}

			}
 ],
		"dependency_cache" : [ 			{
				"name" : "s_pp2i_r_i2pp_O.maxpat",
				"bootpath" : "E:/GoogleDrive/Make/WFS/WFS2_max/wfs/patchers",
				"patcherrelativepath" : ".",
				"type" : "JSON",
				"implicit" : 1
			}
, 			{
				"name" : "interfaceOutputParameter_f.maxpat",
				"bootpath" : "E:/GoogleDrive/Make/WFS/WFS2_max/wfs/patchers",
				"patcherrelativepath" : ".",
				"type" : "JSON",
				"implicit" : 1
			}
, 			{
				"name" : "interfaceOutputParameter_i.maxpat",
				"bootpath" : "E:/GoogleDrive/Make/WFS/WFS2_max/wfs/patchers",
				"patcherrelativepath" : ".",
				"type" : "JSON",
				"implicit" : 1
			}
, 			{
				"name" : "interfaceReverbFeedGUI.maxpat",
				"bootpath" : "E:/GoogleDrive/Make/WFS/WFS2_max/wfs/patchers",
				"patcherrelativepath" : ".",
				"type" : "JSON",
				"implicit" : 1
			}
, 			{
				"name" : "speakerDirectivity.maxpat",
				"bootpath" : "E:/GoogleDrive/Make/WFS/WFS2_max/wfs/patchers",
				"patcherrelativepath" : ".",
				"type" : "JSON",
				"implicit" : 1
			}
, 			{
				"name" : "spearkerDirectivity.js",
				"bootpath" : "E:/GoogleDrive/Make/WFS/WFS2_max/wfs/code",
				"patcherrelativepath" : "../code",
				"type" : "TEXT",
				"implicit" : 1
			}
, 			{
				"name" : "s_i2pp_r_pp2i_O.maxpat",
				"bootpath" : "E:/GoogleDrive/Make/WFS/WFS2_max/wfs/patchers",
				"patcherrelativepath" : ".",
				"type" : "JSON",
				"implicit" : 1
			}
, 			{
				"name" : "padPosition.maxpat",
				"bootpath" : "E:/GoogleDrive/Make/WFS/WFS2_max/wfs/patchers",
				"patcherrelativepath" : ".",
				"type" : "JSON",
				"implicit" : 1
			}
, 			{
				"name" : "interfaceOutputGUI.maxpat",
				"bootpath" : "E:/GoogleDrive/Make/WFS/WFS2_max/wfs/patchers",
				"patcherrelativepath" : ".",
				"type" : "JSON",
				"implicit" : 1
			}
, 			{
				"name" : "outputChOSC.maxpat",
				"bootpath" : "E:/GoogleDrive/Make/WFS/WFS2_max/wfs/patchers",
				"patcherrelativepath" : ".",
				"type" : "JSON",
				"implicit" : 1
			}
, 			{
				"name" : "feedbackOutput.maxpat",
				"bootpath" : "E:/GoogleDrive/Make/WFS/WFS2_max/wfs/patchers",
				"patcherrelativepath" : ".",
				"type" : "JSON",
				"implicit" : 1
			}
, 			{
				"name" : "getOSCch_IO.maxpat",
				"bootpath" : "E:/GoogleDrive/Make/WFS/WFS2_max/wfs/patchers",
				"patcherrelativepath" : ".",
				"type" : "JSON",
				"implicit" : 1
			}
, 			{
				"name" : "splitList2-.maxpat",
				"bootpath" : "E:/GoogleDrive/Make/WFS/WFS2_max/wfs/patchers",
				"patcherrelativepath" : ".",
				"type" : "JSON",
				"implicit" : 1
			}
 ],
		"autosave" : 0,
		"styles" : [ 			{
				"name" : "Audiomix",
				"default" : 				{
					"bgfillcolor" : 					{
						"type" : "gradient",
						"color1" : [ 0.376471, 0.384314, 0.4, 1.0 ],
						"color2" : [ 0.290196, 0.309804, 0.301961, 1.0 ],
						"color" : [ 0.290196, 0.309804, 0.301961, 1.0 ],
						"angle" : 270.0,
						"proportion" : 0.39
					}

				}
,
				"parentstyle" : "",
				"multi" : 0
			}
, 			{
				"name" : "dark",
				"parentstyle" : "",
				"multi" : 0
			}
, 			{
				"name" : "dark-1",
				"default" : 				{
					"bgfillcolor" : 					{
						"type" : "gradient",
						"color1" : [ 0.376471, 0.384314, 0.4, 1.0 ],
						"color2" : [ 0.290196, 0.309804, 0.301961, 1.0 ],
						"color" : [ 0.290196, 0.309804, 0.301961, 1.0 ],
						"angle" : 270.0,
						"proportion" : 0.39
					}

				}
,
				"parentstyle" : "",
				"multi" : 0
			}
, 			{
				"name" : "dark-1-1",
				"parentstyle" : "",
				"multi" : 0
			}
 ],
		"toolbarexclusions" : [ "mixerslider" ],
		"bgfillcolor_type" : "gradient",
		"bgfillcolor_color1" : [ 0.376471, 0.384314, 0.4, 1.0 ],
		"bgfillcolor_color2" : [ 0.290196, 0.309804, 0.301961, 1.0 ],
		"bgfillcolor_color" : [ 0.290196, 0.309804, 0.301961, 1.0 ],
		"bgfillcolor_angle" : 270.0,
		"bgfillcolor_proportion" : 0.39
	}

}
