{
	"patcher" : 	{
		"fileversion" : 1,
		"appversion" : 		{
			"major" : 7,
			"minor" : 3,
			"revision" : 5,
			"architecture" : "x64",
			"modernui" : 1
		}
,
		"rect" : [ 69.0, 131.0, 506.0, 253.0 ],
		"bglocked" : 0,
		"openinpresentation" : 0,
		"default_fontsize" : 12.0,
		"default_fontface" : 0,
		"default_fontname" : "Arial",
		"gridonopen" : 1,
		"gridsize" : [ 15.0, 15.0 ],
		"gridsnaponopen" : 1,
		"objectsnaponopen" : 1,
		"statusbarvisible" : 2,
		"toolbarvisible" : 1,
		"lefttoolbarpinned" : 0,
		"toptoolbarpinned" : 0,
		"righttoolbarpinned" : 0,
		"bottomtoolbarpinned" : 0,
		"toolbars_unpinned_last_save" : 0,
		"tallnewobj" : 0,
		"boxanimatetime" : 200,
		"enablehscroll" : 1,
		"enablevscroll" : 1,
		"devicewidth" : 0.0,
		"description" : "",
		"digest" : "",
		"tags" : "",
		"style" : "dark",
		"subpatcher_template" : "dark",
		"boxes" : [ 			{
				"box" : 				{
					"id" : "obj-1",
					"maxclass" : "newobj",
					"numinlets" : 0,
					"numoutlets" : 3,
					"outlettype" : [ "", "", "" ],
					"patching_rect" : [ 184.0, 77.0, 229.0, 22.0 ],
					"style" : "",
					"text" : "interfaceReverbReturnElement  #1 #2 #3"
				}

			}
, 			{
				"box" : 				{
					"id" : "obj-3",
					"maxclass" : "newobj",
					"numinlets" : 1,
					"numoutlets" : 1,
					"outlettype" : [ "" ],
					"patching_rect" : [ 34.0, 110.849854, 98.0, 22.0 ],
					"style" : "",
					"text" : "loadmess set #1"
				}

			}
, 			{
				"box" : 				{
					"color" : [ 0.490196, 0.501961, 0.521569, 1.0 ],
					"id" : "obj-220",
					"maxclass" : "newobj",
					"numinlets" : 1,
					"numoutlets" : 0,
					"patching_rect" : [ 394.0, 198.399902, 89.0, 22.0 ],
					"style" : "",
					"text" : "s HFdamping_"
				}

			}
, 			{
				"box" : 				{
					"color" : [ 0.490196, 0.501961, 0.521569, 1.0 ],
					"id" : "obj-221",
					"maxclass" : "newobj",
					"numinlets" : 1,
					"numoutlets" : 1,
					"outlettype" : [ "" ],
					"patching_rect" : [ 394.0, 162.399902, 65.0, 22.0 ],
					"style" : "",
					"text" : "prepend 0"
				}

			}
, 			{
				"box" : 				{
					"color" : [ 0.490196, 0.501961, 0.521569, 1.0 ],
					"id" : "obj-95",
					"maxclass" : "newobj",
					"numinlets" : 1,
					"numoutlets" : 0,
					"patching_rect" : [ 184.0, 198.399902, 61.0, 22.0 ],
					"style" : "",
					"text" : "s delays_"
				}

			}
, 			{
				"box" : 				{
					"color" : [ 0.490196, 0.501961, 0.521569, 1.0 ],
					"id" : "obj-96",
					"maxclass" : "newobj",
					"numinlets" : 1,
					"numoutlets" : 1,
					"outlettype" : [ "" ],
					"patching_rect" : [ 184.0, 162.399902, 65.0, 22.0 ],
					"style" : "",
					"text" : "prepend 0"
				}

			}
, 			{
				"box" : 				{
					"color" : [ 0.490196, 0.501961, 0.521569, 1.0 ],
					"id" : "obj-86",
					"maxclass" : "newobj",
					"numinlets" : 1,
					"numoutlets" : 0,
					"patching_rect" : [ 289.0, 198.399902, 57.0, 22.0 ],
					"style" : "",
					"text" : "s levels_"
				}

			}
, 			{
				"box" : 				{
					"color" : [ 0.490196, 0.501961, 0.521569, 1.0 ],
					"id" : "obj-87",
					"maxclass" : "newobj",
					"numinlets" : 1,
					"numoutlets" : 1,
					"outlettype" : [ "" ],
					"patching_rect" : [ 289.0, 162.399902, 65.0, 22.0 ],
					"style" : "",
					"text" : "prepend 0"
				}

			}
 ],
		"lines" : [ 			{
				"patchline" : 				{
					"destination" : [ "obj-221", 0 ],
					"source" : [ "obj-1", 2 ]
				}

			}
, 			{
				"patchline" : 				{
					"destination" : [ "obj-87", 0 ],
					"source" : [ "obj-1", 1 ]
				}

			}
, 			{
				"patchline" : 				{
					"destination" : [ "obj-96", 0 ],
					"source" : [ "obj-1", 0 ]
				}

			}
, 			{
				"patchline" : 				{
					"color" : [ 0.65098, 0.65098, 0.65098, 0.701961 ],
					"destination" : [ "obj-220", 0 ],
					"source" : [ "obj-221", 0 ]
				}

			}
, 			{
				"patchline" : 				{
					"destination" : [ "obj-221", 0 ],
					"midpoints" : [ 43.5, 145.0, 403.5, 145.0 ],
					"order" : 0,
					"source" : [ "obj-3", 0 ]
				}

			}
, 			{
				"patchline" : 				{
					"destination" : [ "obj-87", 0 ],
					"midpoints" : [ 43.5, 145.0, 298.5, 145.0 ],
					"order" : 1,
					"source" : [ "obj-3", 0 ]
				}

			}
, 			{
				"patchline" : 				{
					"destination" : [ "obj-96", 0 ],
					"midpoints" : [ 43.5, 145.0, 193.5, 145.0 ],
					"order" : 2,
					"source" : [ "obj-3", 0 ]
				}

			}
, 			{
				"patchline" : 				{
					"color" : [ 0.65098, 0.65098, 0.65098, 0.701961 ],
					"destination" : [ "obj-86", 0 ],
					"source" : [ "obj-87", 0 ]
				}

			}
, 			{
				"patchline" : 				{
					"color" : [ 0.65098, 0.65098, 0.65098, 0.701961 ],
					"destination" : [ "obj-95", 0 ],
					"source" : [ "obj-96", 0 ]
				}

			}
 ],
		"dependency_cache" : [ 			{
				"name" : "interfaceReverbReturnElement.maxpat",
				"bootpath" : "D:/WFS/WFS2_max/wfs/patchers",
				"patcherrelativepath" : ".",
				"type" : "JSON",
				"implicit" : 1
			}
, 			{
				"name" : "keyboardNudgeReverb.maxpat",
				"bootpath" : "D:/WFS/WFS2_max/wfs/patchers",
				"patcherrelativepath" : ".",
				"type" : "JSON",
				"implicit" : 1
			}
, 			{
				"name" : "multiMutesPP.js",
				"bootpath" : "D:/WFS/WFS2_max/wfs/code",
				"patcherrelativepath" : "../code",
				"type" : "TEXT",
				"implicit" : 1
			}
, 			{
				"name" : "distance2speakersReverb.maxpat",
				"bootpath" : "D:/WFS/WFS2_max/wfs/patchers",
				"patcherrelativepath" : ".",
				"type" : "JSON",
				"implicit" : 1
			}
, 			{
				"name" : "curvatureProcess.maxpat",
				"bootpath" : "D:/WFS/WFS2_max/wfs/patchers",
				"patcherrelativepath" : ".",
				"type" : "JSON",
				"implicit" : 1
			}
, 			{
				"name" : "feedbackReverbReturn.maxpat",
				"bootpath" : "D:/WFS/WFS2_max/wfs/patchers",
				"patcherrelativepath" : ".",
				"type" : "JSON",
				"implicit" : 1
			}
, 			{
				"name" : "getOSC_IO_PP.maxpat",
				"bootpath" : "D:/WFS/WFS2_max/wfs/patchers",
				"patcherrelativepath" : ".",
				"type" : "JSON",
				"implicit" : 1
			}
, 			{
				"name" : "reverbReturnChOSC.maxpat",
				"bootpath" : "D:/WFS/WFS2_max/wfs/patchers",
				"patcherrelativepath" : ".",
				"type" : "JSON",
				"implicit" : 1
			}
, 			{
				"name" : "listLengthPP.maxpat",
				"bootpath" : "D:/WFS/WFS2_max/wfs/patchers",
				"patcherrelativepath" : ".",
				"type" : "JSON",
				"implicit" : 1
			}
, 			{
				"name" : "s_pp2i_r_i2pp_f1b.maxpat",
				"bootpath" : "D:/WFS/WFS2_max/wfs/patchers",
				"patcherrelativepath" : ".",
				"type" : "JSON",
				"implicit" : 1
			}
, 			{
				"name" : "s_pp2i_r_i2pp_i1b.maxpat",
				"bootpath" : "D:/WFS/WFS2_max/wfs/patchers",
				"patcherrelativepath" : ".",
				"type" : "JSON",
				"implicit" : 1
			}
, 			{
				"name" : "loadSettingsReverbReturn.maxpat",
				"bootpath" : "D:/WFS/WFS2_max/wfs/patchers",
				"patcherrelativepath" : ".",
				"type" : "JSON",
				"implicit" : 1
			}
, 			{
				"name" : "s_pp2i_r_i2pp_l0.maxpat",
				"bootpath" : "D:/WFS/WFS2_max/wfs/patchers",
				"patcherrelativepath" : ".",
				"type" : "JSON",
				"implicit" : 1
			}
, 			{
				"name" : "s_pp2i_r_i2pp_l1b.maxpat",
				"bootpath" : "D:/WFS/WFS2_max/wfs/patchers",
				"patcherrelativepath" : ".",
				"type" : "JSON",
				"implicit" : 1
			}
 ],
		"autosave" : 0,
		"styles" : [ 			{
				"name" : "dark",
				"parentstyle" : "",
				"multi" : 0
			}
 ],
		"toolbarexclusions" : [ "mixerslider" ],
		"textcolor" : [ 1.0, 1.0, 1.0, 1.0 ]
	}

}
